<?xml version="1.0" encoding="UTF-8"?>
<svg id="Layer_1" data-name="Layer 1" xmlns="http://www.w3.org/2000/svg" xmlns:xlink="http://www.w3.org/1999/xlink" viewBox="0 0 142.84 142.96">
  <defs>
    <style>
      .cls-1 {
        fill: url(#linear-gradient-3);
      }

      .cls-2 {
        fill: url(#linear-gradient-2);
      }

      .cls-3 {
        fill: url(#linear-gradient);
      }

      .cls-4 {
        fill: #848484;
      }

      .cls-5 {
        fill: #fff;
      }
    </style>
    <linearGradient id="linear-gradient" x1="72.25" y1="-20.2" x2="71.24" y2="57.34" gradientUnits="userSpaceOnUse">
      <stop offset=".49" stop-color="#808184"/>
      <stop offset=".71" stop-color="#f1f1f2"/>
    </linearGradient>
    <linearGradient id="linear-gradient-2" x1="74.76" y1="83.02" x2="11.9" y2="83.02" gradientUnits="userSpaceOnUse">
      <stop offset=".15" stop-color="#929497"/>
      <stop offset=".82" stop-color="#e6e7e8"/>
    </linearGradient>
    <linearGradient id="linear-gradient-3" x1="72.33" y1="66.76" x2="72.33" y2="94.3" gradientUnits="userSpaceOnUse">
      <stop offset="0" stop-color="#7c62ff"/>
      <stop offset="1" stop-color="#c9bdff"/>
    </linearGradient>
  </defs>
  <g>
    <path class="cls-3" d="M71.2,12.35l-36.43,17.07-1.86-.91v5.03s1.99-.84,1.99-.84v65.4c0,1.81.76,3.54,2.1,4.77l33.39,30.47,1.5.11,33.43-30.29c1.48-1.34,2.32-3.24,2.32-5.23l.06-65.56,2.53.93-.08-4.93-2.34.86M106.75,29.69H35.91s35.28-16.54,35.28-16.54"/>
    <polygon class="cls-2" points="34.94 32.77 34.98 100.75 70.34 133.28 66.74 127.15 36.77 99.77 36.16 34.99 34.94 32.77"/>
    <ellipse class="cls-4" cx="71.19" cy="13.45" rx="3.72" ry="3.69"/>
    <ellipse class="cls-5" cx="71.2" cy="13.36" rx="2.22" ry="2.2"/>
  </g>
  <g>
    <path class="cls-1" d="M60.94,75.6c-1.12,1.07-2.2,1.44-3.86,3.4-.48.57-.78,1.06-1.12,1.62-.83,1.38-1,3.49-1.44,4.32-1.23,2.33-4.29,5.11-12.5,6.73,1.27.22,2.94.34,4.83,0,5.51-.98,8.54-4.3,10.36-5.82,1.48-1.24,1.81-1.58,3.54-2.48,5.31-2.77,5.5-4.06,5.52-4.45.06-1.26-1.17-2.38-1.01-2.5.16-.12,1,1.32,2.61,1.72.58.14,1.09.15,1.49.12.22.91.16,1.61.06,2.08-.14.69-.39,1.05-.42,1.78-.02.58.12,1.06.24,1.37-1.03,1.53-1.95,2.81-2.67,3.8-1.66,2.26-2.26,2.89-3.15,3.39-1.15.65-2.29.8-3.03.83,1.24.24,2.24.15,2.97,0,1.25-.26,5.11-2.55,6.95-7.37.45-1.17,1.05-3.22.95-5.94.2,0,.99-.07,1.62-.71.84-.86.66-2.02.64-2.14.19.46.45,1.17.59,2.08.27,1.72-.13,2.61-.06,3.8.06.96.43,2.34,1.96,3.98.06.6.22,1.39.65,2.2,1.34,2.51,4.13,3.11,4.64,3.21-.69-.62-1.66-1.62-2.56-3.03-1.66-2.62-2.03-5.08-2.2-6.24-.15-1.05-.27-2.56-.06-4.4.34-.11.87-.24,1.43-.06,1.34.44,1.56,2.26,2.56,4.04.55.98,1.53,2.31,3.45,3.57-.03.53.02,1.01.12,1.43,1.07,4.38,8.35,5.64,8.97,5.74-1.11-.28-2.73-.84-4.22-2.11-2.06-1.75-2.5-3.66-3.92-6.18-.93-1.64-2.49-3.92-5.17-6.3.16.05.5.12.89,0,.78-.24,1.04-1.05,1.07-1.13.44.68,1.12,1.56,2.14,2.38,1.76,1.42,3.59,1.9,4.58,2.08.22.35.56.85,1.01,1.43,1.13,1.45,1.99,2.56,3.27,3.21.54.27,1.96.87,4.16.42-.75.01-1.88-.08-2.97-.71-2.18-1.27-1.75-3.31-4.04-5.23-1.62-1.35-2.42-.82-4.16-2.26-1.51-1.25-1.17-2.97-2.79-4.04-.71-.47-1.41-.64-1.87-.71.23.03,1.06.13,1.73-.39.83-.65,1.08-2.01.46-3.24.64,1.31,1.42,2.02,1.99,2.41.79.54,1.34.6,5.17,1.58,1.59.41,2.27.6,2.85,1.25.64.71.83,1.59.89,2.2.33-.71.76-1.86.89-3.33.06-.73.39-4.46-1.9-6.72-1.27-1.25-2.22-.93-2.85-2.14-.92-1.75.25-3.97.42-4.28,1.73-3.21,5.93-3.65,6.83-3.74,2.24-.24,4.08.29,5.17.71-.89-.68-2.47-1.67-4.58-1.84-3.6-.3-7.23,1.88-9.39,5.53.15-.96.49-2.31,1.31-3.74,1.56-2.74,3.89-4.07,4.93-4.58.18-.09-2.55.44-4.64,2.26-3.06,2.67-3.69,6.5-3.86,8.2-.43.03-1.35.16-2.2.83-1.69,1.35-1.51,3.61-1.49,3.8-.27-.58-.61-.83-.83-.95-2.16-1.16-4.89,3.82-9.69,3.8-1.6,0-2.65-.57-3.57.18-.92.75-.99,2.21-.89,3.39-.37-.54-1-1.31-1.96-1.96-4.61-3.13-13.26-1.03-16.46,3.8-1.24,1.87-1.1,3.3-3.15,5.71-1.46,1.71-3.06,2.77-4.16,3.39.89-.32,2.7-.83,4.93-.48,1.54.24,4.34,1.4,5.08,1.83.72-2.6.69-3.29,1.88-5.27.89-1.47,1.48-2.1,2.81-3.19.81-.67,2.13-1.49,4.22-1.92Z"/>
    <circle class="cls-5" cx="91.21" cy="67.51" r=".83"/>
  </g>
</svg>