<?xml version="1.0" encoding="UTF-8"?>
<svg id="Layer_1" data-name="Layer 1" xmlns="http://www.w3.org/2000/svg" xmlns:xlink="http://www.w3.org/1999/xlink" viewBox="0 0 142.84 142.96">
  <defs>
    <style>
      .cls-1 {
        fill: url(#linear-gradient-3);
      }

      .cls-2 {
        fill: url(#linear-gradient-2);
      }

      .cls-3 {
        fill: url(#linear-gradient);
      }

      .cls-4 {
        fill: #848484;
      }

      .cls-5 {
        fill: #fff;
      }
    </style>
    <linearGradient id="linear-gradient" x1="72.25" y1="-20.96" x2="71.24" y2="56.58" gradientUnits="userSpaceOnUse">
      <stop offset=".49" stop-color="#808184"/>
      <stop offset=".71" stop-color="#f1f1f2"/>
    </linearGradient>
    <linearGradient id="linear-gradient-2" x1="74.76" y1="82.26" x2="11.9" y2="82.26" gradientUnits="userSpaceOnUse">
      <stop offset=".15" stop-color="#929497"/>
      <stop offset=".82" stop-color="#e6e7e8"/>
    </linearGradient>
    <linearGradient id="linear-gradient-3" x1="73.07" y1="52.16" x2="73.07" y2="91.05" gradientUnits="userSpaceOnUse">
      <stop offset="0" stop-color="#7c62ff"/>
      <stop offset="1" stop-color="#c9bdff"/>
    </linearGradient>
  </defs>
  <g>
    <path class="cls-3" d="M71.2,11.59l-36.43,17.07-1.86-.91v5.03s1.99-.84,1.99-.84v65.4c0,1.81.76,3.54,2.1,4.77l33.39,30.47,1.5.11,33.43-30.29c1.48-1.34,2.32-3.24,2.32-5.23l.06-65.56,2.53.93-.08-4.93-2.34.86M106.75,28.93H35.91s35.28-16.54,35.28-16.54"/>
    <polygon class="cls-2" points="34.94 32.01 34.98 100 70.34 132.52 66.74 126.39 36.77 99.01 36.16 34.24 34.94 32.01"/>
    <ellipse class="cls-4" cx="71.19" cy="12.69" rx="3.72" ry="3.69"/>
    <ellipse class="cls-5" cx="71.2" cy="12.6" rx="2.22" ry="2.2"/>
  </g>
  <g>
    <path class="cls-1" d="M64.29,45.63c-5.51,0-9.73,8.59-12.34,13.9-1.34,2.73-4.65,10.12-4.96,20.42-.18,5.88.68,10.74,1.5,14.09.76.5,2.11,1.24,3.94,1.53,1.31.21,2.42.12,3.2,0-.46-.24-1.06-.63-1.67-1.2-.54-.51-.92-1.03-1.18-1.44.66.54,2,1.48,3.93,1.9,1.49.32,2.75.2,3.54.07-.68-.37-1.57-.97-2.29-1.96-2.43-3.32-1.18-8.42.98-11.52,1.53-2.19,3.54-3.4,4.98-4.06-.53-1.04-1.13-2.55-1.37-4.45-.47-3.71.74-6.64,1.37-7.92-.25,1.59-.45,4.22.38,7.27,1.37,5.01,4.64,7.96,5.97,9.03-.57-.96-1.28-2.43-1.64-4.32-.58-3.09.09-5.63.52-6.87.17,3.59,1.07,6.14,1.83,7.79,1.14,2.45,2.12,3.18,3.21,6.22.77,2.16,1.37,3.93.79,5.96-.6,2.07-2.12,3.34-2.95,3.93.29.07,1.41.33,2.62-.26,1.24-.61,1.72-1.7,1.83-1.96.04.43.08,1.43-.46,2.49-.37.73-.86,1.2-1.18,1.46.73.02,1.76-.01,2.95-.28,0,0,2.93-.66,5.56-2.95,3-2.6,4.85-10.89,2.42-21.01,1.25,2.25,3.56,6.92,3.99,12.31.3,3.73-.45,5.77-.85,6.68-.56,1.27-1.25,2.2-1.77,2.82.47-.03,1.21-.14,2.03-.52.65-.31,1.13-.69,1.44-.98-.02.3-.1.81-.39,1.37-.28.52-.63.86-.85,1.05.6-.12,1.45-.32,2.42-.65,0,0,1.64-.56,2.95-1.31,2.99-1.71,4.51-9.06,4.45-15.06-.04-4.35-.9-6.82-1.37-7.99-.75-1.85-1.66-3.25-2.36-4.19-.67.7-1.55,1.4-2.68,1.9-4.63,2.04-9.49-1.05-10.08-1.44-1.21.44-2.71.83-4.45.98-5.17.45-9.21-1.54-11.06-2.62,1.46.54,3.47,1.09,5.9,1.24,3.92.25,7.06-.67,8.9-1.37.67.59,2.53,2.06,5.3,2.29,4.31.36,7.2-2.59,7.59-3.01-1.42-1.33-2.84-2.66-4.26-3.99-.24-.3-.57-.78-.79-1.44-.29-.86-.25-1.61-.2-2.03-.72-.29-2.05-.96-3.14-2.36-1.9-2.42-1.64-5.2-1.57-5.83-.22.07-.67.23-1.05.65-.62.69-.6,1.52-.59,1.7-.24-.4-.6-1.12-.72-2.09-.1-.83.02-1.51.13-1.93-1,.96-2.03,2.02-3.08,3.18-1.36,1.51-2.55,2.98-3.6,4.39.07-.81.21-1.74.46-2.75.39-1.54.93-2.82,1.44-3.8-.9.25-2.31.57-4.06.65-4.95.24-6.97-1.67-9.57-1.67Z"/>
    <circle class="cls-5" cx="87.93" cy="58.13" r=".99"/>
  </g>
</svg>