<?xml version="1.0" encoding="UTF-8"?>
<svg id="Layer_1" data-name="Layer 1" xmlns="http://www.w3.org/2000/svg" xmlns:xlink="http://www.w3.org/1999/xlink" viewBox="0 0 142.84 142.96">
  <defs>
    <style>
      .cls-1 {
        fill: url(#linear-gradient-3);
      }

      .cls-2 {
        fill: url(#linear-gradient-2);
      }

      .cls-3 {
        fill: url(#linear-gradient);
      }

      .cls-4 {
        fill: #848484;
      }

      .cls-5 {
        fill: #fff;
      }
    </style>
    <linearGradient id="linear-gradient" x1="72.96" y1="-21.56" x2="71.94" y2="55.99" gradientUnits="userSpaceOnUse">
      <stop offset=".49" stop-color="#808184"/>
      <stop offset=".71" stop-color="#f1f1f2"/>
    </linearGradient>
    <linearGradient id="linear-gradient-2" x1="75.47" y1="81.67" x2="12.61" y2="81.67" gradientUnits="userSpaceOnUse">
      <stop offset=".15" stop-color="#929497"/>
      <stop offset=".82" stop-color="#e6e7e8"/>
    </linearGradient>
    <linearGradient id="linear-gradient-3" x1="75.15" y1="51.61" x2="75.12" y2="101.26" gradientUnits="userSpaceOnUse">
      <stop offset="0" stop-color="#7c62ff"/>
      <stop offset="1" stop-color="#c9bdff"/>
    </linearGradient>
  </defs>
  <g>
    <path class="cls-3" d="M71.9,10.99l-36.43,17.07-1.86-.91v5.03s1.99-.84,1.99-.84v65.4c0,1.81.76,3.54,2.1,4.77l33.39,30.47,1.5.11,33.43-30.29c1.48-1.34,2.32-3.24,2.32-5.23l.06-65.56,2.53.93-.08-4.93-2.34.86M107.45,28.34H36.61s35.28-16.54,35.28-16.54"/>
    <polygon class="cls-2" points="35.64 31.41 35.68 99.4 71.04 131.92 67.45 125.79 37.47 98.42 36.86 33.64 35.64 31.41"/>
    <ellipse class="cls-4" cx="71.9" cy="12.09" rx="3.72" ry="3.69"/>
    <ellipse class="cls-5" cx="71.9" cy="12" rx="2.22" ry="2.2"/>
  </g>
  <g>
    <path class="cls-1" d="M90.63,49.2c.71-1.12,3.33-.39,4.71,1.6.6.86.72,1.2,1.44,2.4.61,1.03,1.59,2.34,3.19,3.67-.57.48-1.14.84-1.68,1.12-4.26,2.21-6.93,1.34-10.46-.16.84.36,2.12,1.68,4.23,2.16,2.92.65,5.27-.28,6.08-.64-.68.93-1.8,2.19-3.51,3.03-3,1.47-5.55.55-9.05.62-2.28.05-5.52.53-9.45,2.57-.05.35-.12,1.27.41,2.16.19.31.69.84,3.48,1.58,2.13.56,2.72.47,3.26,1.06.71.77.68,1.99.5,2.99-.05-.21-.17-.64-.55-1.05-.29-.31-.61-.47-.8-.55.1.1.48.52.5,1.15.01.4-.12.7-.2.85-.59.3-1.54.66-2.69.57-2.45-.2-3.96-2.35-4.78-3.51-3.13-4.44-2.06-10.17-1.69-11.81-.34.46-.68.99-1,1.59-1.31,2.52-1.43,4.98-1.35,6.53-1.23.37-2.46.73-3.69,1.1,0-.13-.14-2.54-1.94-3.44-1.28-.64-2.61-.12-3.29.15-2.84,1.12-3.87,4.15-4.09,4.83.19-.44.76-1.62,2.09-2.39,1.03-.6,2.92-1.22,4.23-.4,1.68,1.06.86,3.53,2.64,4.43.79.4,1.75.32,2.59.25,1.4-.12,1.75-.55,2.49-.5.79.05,1.89.63,3.14,3.18-.21-.17-.64-.46-1.25-.59-.54-.11-.99-.05-1.25,0,.4.01.75.23.9.57.14.34.03.65,0,.72-.59.27-1.54.62-2.74.7-.65.04-2.93.16-5.03-1.42-1.77-1.33-2.39-3.1-2.59-3.76-.88.61-2.07,1.61-3.04,3.12-2.83,4.42-1.87,10.25.35,14.14.54.94,4.36,7.35,11.59,7.46.5,0,7.77.21,10.27-4.74,1.14-2.26,1.47-5.95-.7-7.99-1.24-1.16-3.6-2.08-5.53-.97-1.39.8-2.44,2.59-2.02,4.39.07.29.41,2.16,1.84,2.46.91.19,2-.31,2.41-1.24.48-1.09-.1-2.53-1.42-3.07.32,0,1.95-.01,2.88,1.13,1.22,1.5.46,3.98-.8,5.15-1.94,1.79-5.65,1.03-7.51-.85-2.59-2.63-1.82-7.71.8-10.48,3.07-3.24,8.36-2.99,11.57-.94,4.79,3.05,5.18,10.26,3.16,14.78-3.04,6.83-12.16,8.81-18.37,7.84-10.09-1.58-16.01-11.52-17.85-18.88-2.42-9.68.84-20.32,8.06-26.59.59-.52,11.26-9.52,19.64-5.11,2.99,1.57,4.63,4.3,5.51,6.23-.07-.94-.24-2.02-.56-3.19-.7-2.55-1.86-4.48-2.79-5.75,1.13-.1,2.06-.06,2.71,0,.8.07,1.55.1,2.43.34,1.51.4,2.52,1.07,2.86,1.31.49.34.87.68,1.12.93"/>
    <circle class="cls-5" cx="92.43" cy="53.13" r="2.04"/>
  </g>
</svg>