<?xml version="1.0" encoding="UTF-8"?>
<svg id="Layer_1" data-name="Layer 1" xmlns="http://www.w3.org/2000/svg" xmlns:xlink="http://www.w3.org/1999/xlink" viewBox="0 0 142.84 142.96">
  <defs>
    <style>
      .cls-1 {
        fill: url(#linear-gradient-3);
      }

      .cls-2 {
        fill: url(#linear-gradient-2);
      }

      .cls-3 {
        fill: url(#linear-gradient);
      }

      .cls-4 {
        fill: #848484;
      }

      .cls-5 {
        fill: #fff;
      }
    </style>
    <linearGradient id="linear-gradient" x1="72.25" y1="-20.44" x2="71.24" y2="57.11" gradientUnits="userSpaceOnUse">
      <stop offset=".49" stop-color="#808184"/>
      <stop offset=".71" stop-color="#f1f1f2"/>
    </linearGradient>
    <linearGradient id="linear-gradient-2" x1="74.76" y1="82.79" x2="11.9" y2="82.79" gradientUnits="userSpaceOnUse">
      <stop offset=".15" stop-color="#929497"/>
      <stop offset=".82" stop-color="#e6e7e8"/>
    </linearGradient>
    <linearGradient id="linear-gradient-3" x1="70.58" y1="60.15" x2="70.58" y2="94.85" gradientUnits="userSpaceOnUse">
      <stop offset="0" stop-color="#7c62ff"/>
      <stop offset="1" stop-color="#c9bdff"/>
    </linearGradient>
  </defs>
  <g>
    <path class="cls-3" d="M71.2,12.11l-36.43,17.07-1.86-.91v5.03s1.99-.84,1.99-.84v65.4c0,1.81.76,3.54,2.1,4.77l33.39,30.47,1.5.11,33.43-30.29c1.48-1.34,2.32-3.24,2.32-5.23l.06-65.56,2.53.93-.08-4.93-2.34.86M106.75,29.46H35.91s35.28-16.54,35.28-16.54"/>
    <polygon class="cls-2" points="34.94 32.53 34.98 100.52 70.34 133.04 66.74 126.92 36.77 99.54 36.16 34.76 34.94 32.53"/>
    <ellipse class="cls-4" cx="71.19" cy="13.21" rx="3.72" ry="3.69"/>
    <ellipse class="cls-5" cx="71.2" cy="13.12" rx="2.22" ry="2.2"/>
  </g>
  <g>
    <path class="cls-1" d="M62.62,69.07c.22-1.14.39-2.56.35-4.17-.03-.94-.12-1.8-.24-2.55-.23.72-.38,3.12-1.49,5.21-1.1,2.08-3.21,2.7-4.08,3.03.64-.73,1.37-1.71,1.97-2.96,1.43-2.94,1.43-5.7,1.32-7.17-.24-.12-.61-.27-1.05-.26-.79.02-1.26.52-1.65.72-.63.33-1.8.26-4.21-1.58.13-.36.26-.88.26-1.51,0-1.15-.42-2.02-.66-2.43.36.67.34,1.48-.07,2.11-.54.83-1.47.91-1.58.92.11-.32.33-1.14,0-2.04-.41-1.13-1.51-1.94-2.83-2.11.55.15.92.57.92.99,0,.28-.15.58-.39.72-.72.44-1.99-.53-2.24-.72-.87-.66-1.33-1.52-1.58-2.17-.09.41-.17,1.05,0,1.78.42,1.81,2.02,2.68,2.3,2.83-1.62,1.75-3.25,3.51-4.87,5.26.15.03.43.09.71.3.33.25.48.56.54.7-.18-.08-.47-.19-.85-.19-.15,0-.99-.01-1.45.58-.57.74-.06,1.81,0,1.94.51,1.03,1.66,1.29,1.8,1.32.9.18,1.31-.23,2.6-.45,0,0,1.38-.24,2.65,0,2.91.54,4.5,5.56,5.12,7.5,1.08,3.4.7,4.78,2.2,6.4,1.13,1.23,2.56,1.76,3.57,2.01.48,1.65.7,3.04.82,4.02.29,2.41.47,4.02-.46,5.49-.47.74-1.06,1.2-1.46,1.46h3.85c-.03-.42-.05-1.05,0-1.82.1-1.48.43-2.46.6-3.15.25-1.03.43-2.57,0-4.7.49.78,1.26,2.23,1.5,4.2.31,2.58-.45,4.59-.85,5.47h2.75c.02-.44.09-1.1.4-1.82.18-.44.4-.78.6-1.05-.2-.33-.46-.82-.65-1.45-.46-1.56-.14-2.83.1-4.15.23-1.22.47-2.92.55-5.07.95-.25,2.86-.6,5.11,0,3.38.9,5.21,3.31,5.73,4.05.35-.02.7-.04,1.05-.07.16-.7.42-1.47.86-2.24,2.02-3.58,6.19-4.43,7.17-4.61-.45.48-.97,1.2-.92,2.04.05.93.77,1.38,1.51,2.63,0,0,.56.94,1.05,2.76.92,3.4-1.98,8.41-2.3,8.96h3.29c-.01-.06-.1-.58.26-1,.41-.47,1.01-.4,1.05-.39-.04-.55-.05-1.14,0-1.78.2-2.83,1.34-5.02,2.24-6.38.57.55,1.3,1.41,1.78,2.63,1.29,3.28-.3,6.37-.59,6.92h3.22c-.05-.12-.39-.89,0-1.66.2-.39.49-.62.66-.72-.02-.9-.04-2.36,0-4.15.15-7.11,1.01-9.82,1.05-16.12.05-6.56-.84-8.33-1.97-9.48-1.27-1.29-2.86-1.81-4.01-2.04.23.32.47.77.39,1.25-.44,2.78-10.8,3.19-11.91,3.22-3.66.12-11.45-.99-18.06-3.25.26.61.89,2.32.41,4.47-.41,1.85-1.43,3.03-1.9,3.52Z"/>
    <circle class="cls-5" cx="48.15" cy="60.65" r=".95"/>
  </g>
</svg>