<?xml version="1.0" encoding="UTF-8"?>
<svg id="Layer_2" data-name="Layer 2" xmlns="http://www.w3.org/2000/svg" width="77.34877" height="123.68995" xmlns:xlink="http://www.w3.org/1999/xlink" viewBox="0 0 77.34877 123.68995">
  <defs>
    <style>
      .cls-1 {
        fill: url(#linear-gradient-5);
      }

      .cls-2 {
        fill: url(#linear-gradient-4);
      }

      .cls-3 {
        fill: url(#linear-gradient-3);
      }

      .cls-4 {
        fill: url(#linear-gradient-2);
      }

      .cls-5 {
        fill: url(#linear-gradient);
      }

      .cls-6 {
        fill: #848484;
      }

      .cls-7 {
        fill: #fff;
      }
    </style>
    <linearGradient id="linear-gradient" x1="39.34973" y1="-29.95536" x2="38.33266" y2="47.58614" gradientUnits="userSpaceOnUse">
      <stop offset=".48594" stop-color="#808184"/>
      <stop offset=".70643" stop-color="#f1f1f2"/>
    </linearGradient>
    <linearGradient id="linear-gradient-2" x1="41.86066" y1="73.26769" x2="-20.99842" y2="73.26769" gradientUnits="userSpaceOnUse">
      <stop offset=".15051" stop-color="#929497"/>
      <stop offset=".81613" stop-color="#e6e7e8"/>
    </linearGradient>
    <linearGradient id="linear-gradient-3" x1="534.25878" y1="242.05422" x2="575.99013" y2="242.05422" gradientTransform="translate(-523.22924 138.82999) rotate(-30.73864) scale(.93943 .92219)" gradientUnits="userSpaceOnUse">
      <stop offset="0" stop-color="#7c62ff"/>
      <stop offset="1" stop-color="#c9bdff"/>
    </linearGradient>
    <linearGradient id="linear-gradient-4" x1="553.30156" y1="215.37735" x2="562.73318" y2="215.37735" xlink:href="#linear-gradient-3"/>
    <linearGradient id="linear-gradient-5" x1="538.08732" y1="234.74201" x2="549.44713" y2="234.74201" xlink:href="#linear-gradient-3"/>
  </defs>
  <g id="Layer_1-2" data-name="Layer 1">
    <g>
      <path class="cls-5" d="M38.29928,2.59169L1.8658,19.66506.01004,18.75733l-.01004,5.03073,2.00373-.83806v65.39977c0,1.81333.7633,3.54291,2.10293,4.76504l33.39468,30.46569,1.50407.10946,33.43002-30.28885c1.47785-1.33898,2.32164-3.23972,2.3235-5.23394l.06111-65.55531,2.52873.93149-.07985-4.93451-2.34234.85597M73.84726,19.93577l-70.83778.00264L38.29025,3.39112"/>
      <polygon class="cls-4" points="2.03955 23.01319 2.0766 90.99829 37.43744 123.5222 33.84003 117.39525 3.86471 90.01765 3.25455 25.23936 2.03955 23.01319"/>
      <ellipse class="cls-6" cx="38.29006" cy="3.69292" rx="3.72428" ry="3.69292"/>
      <ellipse class="cls-7" cx="38.29842" cy="3.60219" rx="2.2229" ry="2.20418"/>
    </g>
    <g>
      <path class="cls-3" d="M55.79209,62.15266c.11035.37602.43717,2.03177,1.69558,3.53728.59125.70735,1.12358,1.41463,2.76106,2.1043,3.26949,1.37704,4.75496.96743,6.91461,1.74643,1.42271.51318,3.371,1.62625,5.25335,4.35665-.77927-.16136-1.8919-.36285-3.23953-.50701-2.9202-.31239-5.85447-.62628-9.35054.33303-4.31564,1.1842-7.18073,3.67561-8.4502,4.93495-1.54828,1.53591-2.55433,3.05578-3.17449,4.14098-.07931-.96886-.08205-2.52218.56262-4.21009,1.70597-4.46665,6.19138-5.28288,6.65483-8.46383.30206-2.07316-1.29482-3.84306-2.39649-5.06411-5.437-6.02614-15.8826-6.94279-23.7909-4.9595-4.07176,1.02114-11.64796,2.92114-13.42984,7.98631-.61469,1.7473-.87465,4.82297-3.35041,6.40867-.92062.58965-1.86015.78915-2.51547.86498.74032-.41941,1.70461-1.11939,2.3213-2.26032.75289-1.39289.51578-2.56993.66508-4.0342.13918-1.36509.64271-3.25945,2.28334-5.48905-1.28652.884-1.93263,1.80984-2.28429,2.48509-.95614,1.83595-.44212,3.17605-1.41175,5.34631-.49108,1.09913-1.13071,1.89194-1.58153,2.38014.09273-.52831.18703-1.31841.121-2.26274-.18981-2.71431-1.54892-4.47951-2.03943-5.3596-2.12439-3.81166,1.45126-10.02662,2.41486-11.70148,3.75484-6.5264,11.35747-10.02711,17.80614-10.58876,15.56854-1.35595,26.0169,13.01352,27.56113,18.27557Z"/>
      <ellipse class="cls-7" cx="15.1325" cy="60.40934" rx="1.18531" ry="1.16356" transform="translate(-28.75059 16.22161) rotate(-30.73865)"/>
      <path class="cls-2" d="M24.45326,42.86336c.15116-.67148.50731-1.76137,1.41733-2.73809,2.29298-2.46102,5.90526-1.84534,6.1982-1.79063-.24679.16729-.87759.64515-1.06947,1.44822-.26421,1.10578.40946,2.38568,1.71624,3.04065-1.12959-.24103-2.5897-.44629-4.29682-.42306-1.55449.02116-2.89879.22614-3.96549.46291Z"/>
      <path class="cls-1" d="M20.93076,64.90328c1.2196.66476,2.30438.91216,2.99498,1.01672,1.20959.18313,2.95676.44765,4.20028-.51228.72889-.56267.62149-1.03404,1.60144-1.94508.73169-.68024,1.48647-1.06348,1.99792-1.27835.08316-.03494-1.21741.59027-2.76246.82325-2.08198.31395-2.82615-.47001-4.44463-.23766-.90986.13062-2.1743.59366-3.58753,2.13339Z"/>
    </g>
  </g>
</svg>