<?xml version="1.0" encoding="UTF-8"?>
<svg id="Layer_1" data-name="Layer 1" xmlns="http://www.w3.org/2000/svg" xmlns:xlink="http://www.w3.org/1999/xlink" viewBox="0 0 142.84 142.96">
  <defs>
    <style>
      .cls-1 {
        fill: url(#linear-gradient-5);
      }

      .cls-2 {
        fill: url(#linear-gradient-4);
      }

      .cls-3 {
        fill: url(#linear-gradient-3);
      }

      .cls-4 {
        fill: url(#linear-gradient-2);
      }

      .cls-5 {
        fill: url(#linear-gradient);
      }

      .cls-6 {
        fill: #848484;
      }

      .cls-7 {
        fill: #fff;
      }
    </style>
    <linearGradient id="linear-gradient" x1="72.15" y1="-21.17" x2="71.13" y2="56.37" gradientUnits="userSpaceOnUse">
      <stop offset=".49" stop-color="#808184"/>
      <stop offset=".71" stop-color="#f1f1f2"/>
    </linearGradient>
    <linearGradient id="linear-gradient-2" x1="74.66" y1="82.05" x2="11.8" y2="82.05" gradientUnits="userSpaceOnUse">
      <stop offset=".15" stop-color="#929497"/>
      <stop offset=".82" stop-color="#e6e7e8"/>
    </linearGradient>
    <linearGradient id="linear-gradient-3" x1="54.64" y1="74.2" x2="93.59" y2="74.2" gradientUnits="userSpaceOnUse">
      <stop offset="0" stop-color="#7c62ff"/>
      <stop offset="1" stop-color="#c9bdff"/>
    </linearGradient>
    <linearGradient id="linear-gradient-4" x1="72.41" y1="49.3" x2="81.22" y2="49.3" xlink:href="#linear-gradient-3"/>
    <linearGradient id="linear-gradient-5" x1="58.21" y1="67.38" x2="68.82" y2="67.38" xlink:href="#linear-gradient-3"/>
  </defs>
  <g>
    <path class="cls-5" d="M71.1,11.38l-36.43,17.07-1.86-.91v5.03s1.99-.84,1.99-.84v65.4c0,1.81.76,3.54,2.1,4.77l33.39,30.47,1.5.11,33.43-30.29c1.48-1.34,2.32-3.24,2.32-5.23l.06-65.56,2.53.93-.08-4.93-2.34.86M106.65,28.72H35.81s35.28-16.54,35.28-16.54"/>
    <polygon class="cls-4" points="34.84 31.8 34.88 99.78 70.24 132.31 66.64 126.18 36.66 98.8 36.05 34.03 34.84 31.8"/>
    <ellipse class="cls-6" cx="71.09" cy="12.48" rx="3.72" ry="3.69"/>
    <ellipse class="cls-7" cx="71.1" cy="12.39" rx="2.22" ry="2.2"/>
  </g>
  <g>
    <path class="cls-3" d="M89.38,81.11c-.1.38-.66,1.99-.35,3.95.15.92.24,1.81,1.29,3.26,2.09,2.89,3.57,3.3,5.02,5.1.95,1.18,2.05,3.16,2.27,6.51-.58-.54-1.43-1.29-2.51-2.12-2.33-1.78-4.68-3.57-8.15-4.55-4.29-1.2-8-.52-9.72-.08-2.1.54-3.73,1.34-4.81,1.96.42-.88,1.21-2.24,2.62-3.37,3.72-3,7.97-1.39,9.98-3.92,1.31-1.65.85-4.01.53-5.64-1.58-8.05-10.04-14.25-17.8-16.62-4-1.22-11.43-3.48-15.52,0-1.41,1.2-3.2,3.74-6.11,3.84-1.09.04-1.99-.28-2.59-.55.85.02,2.02-.09,3.13-.77,1.35-.82,1.75-1.97,2.62-3.17.81-1.12,2.2-2.5,4.74-3.59-1.55.1-2.57.57-3.21.98-1.75,1.1-1.99,2.53-3.92,3.92-.98.7-1.93,1.06-2.56,1.25.35-.41.83-1.05,1.25-1.91,1.22-2.46.95-4.7.98-5.72.12-4.41,6.33-7.97,8-8.93,6.52-3.73,14.79-2.85,20.58,0,13.98,6.87,15.61,24.78,14.25,30.15Z"/>
    <circle class="cls-7" cx="55.55" cy="58.56" r="1.18"/>
    <path class="cls-2" d="M72.41,48.12c.47-.51,1.33-1.27,2.6-1.65,3.21-.95,5.98,1.45,6.2,1.65-.3.02-1.08.11-1.65.71-.79.83-.86,2.29-.08,3.53-.84-.79-1.98-1.73-3.45-2.59-1.34-.79-2.59-1.3-3.62-1.65Z"/>
    <path class="cls-1" d="M58.21,65.47c.7,1.21,1.5,1.99,2.04,2.43.94.78,2.3,1.92,3.85,1.73.91-.11,1.06-.58,2.36-.86.97-.21,1.81-.16,2.36-.08.09.01-1.34-.12-2.78-.71-1.94-.8-2.17-1.87-3.67-2.51-.84-.36-2.16-.61-4.15,0Z"/>
  </g>
</svg>