<?xml version="1.0" encoding="UTF-8"?>
<svg id="Layer_2" data-name="Layer 2" xmlns="http://www.w3.org/2000/svg" width="77.34877" height="123.68995" xmlns:xlink="http://www.w3.org/1999/xlink" viewBox="0 0 77.34877 123.68995">
  <defs>
    <style>
      .cls-1 {
        fill: url(#linear-gradient-5);
      }

      .cls-2 {
        fill: url(#linear-gradient-4);
      }

      .cls-3 {
        fill: url(#linear-gradient-3);
      }

      .cls-4 {
        fill: url(#linear-gradient-2);
      }

      .cls-5 {
        fill: url(#linear-gradient);
      }

      .cls-6 {
        fill: #848484;
      }

      .cls-7 {
        fill: #fff;
      }
    </style>
    <linearGradient id="linear-gradient" x1="39.34973" y1="-29.95536" x2="38.33266" y2="47.58614" gradientUnits="userSpaceOnUse">
      <stop offset=".48594" stop-color="#808184"/>
      <stop offset=".70643" stop-color="#f1f1f2"/>
    </linearGradient>
    <linearGradient id="linear-gradient-2" x1="41.86066" y1="73.26769" x2="-20.99842" y2="73.26769" gradientUnits="userSpaceOnUse">
      <stop offset=".15051" stop-color="#929497"/>
      <stop offset=".81613" stop-color="#e6e7e8"/>
    </linearGradient>
    <linearGradient id="linear-gradient-3" x1="40.00526" y1="95.98935" x2="39.25784" y2="31.76889" gradientUnits="userSpaceOnUse">
      <stop offset="0" stop-color="#7c62ff"/>
      <stop offset="1" stop-color="#c9bdff"/>
    </linearGradient>
    <linearGradient id="linear-gradient-4" x1="29.52829" y1="88.00691" x2="29.52829" y2="80.03486" xlink:href="#linear-gradient-3"/>
    <linearGradient id="linear-gradient-5" x1="51.53229" y1="83.32647" x2="51.53229" y2="72.52037" xlink:href="#linear-gradient-3"/>
  </defs>
  <g id="Layer_1-2" data-name="Layer 1">
    <g>
      <path class="cls-5" d="M38.29928,2.59169L1.8658,19.66506.01004,18.75733l-.01004,5.03073,2.00373-.83806v65.39977c0,1.81333.7633,3.54291,2.10293,4.76504l33.39468,30.46569,1.50407.10946,33.43002-30.28885c1.47785-1.33898,2.32164-3.23972,2.3235-5.23394l.06111-65.55531,2.52873.93149-.07985-4.93451-2.34234.85597M73.84726,19.93577l-70.83778.00264L38.29025,3.39112"/>
      <polygon class="cls-4" points="2.03955 23.01319 2.0766 90.99829 37.43744 123.5222 33.84003 117.39525 3.86471 90.01765 3.25455 25.23936 2.03955 23.01319"/>
      <ellipse class="cls-6" cx="38.29006" cy="3.69292" rx="3.72428" ry="3.69292"/>
      <ellipse class="cls-7" cx="38.29842" cy="3.60219" rx="2.2229" ry="2.20418"/>
    </g>
    <g>
      <path class="cls-3" d="M60.98288,60.88664c-.69906-.30056-1.15469-.73059-1.39563-.99476,5.77561-5.11794,8.18931-12.74038,6.10956-19.24508-2.21773-6.93602-8.81388-10.31596-9.36802-10.58985-1.58087-.7815-3.01853-1.19423-4.07299-1.42558-.20369.54307-.4073,1.08613-.61098,1.6292.76956.19661,5.89644,1.59652,8.24793,6.61874.40265.86007,2.20844,4.71665.4073,8.85885-1.19173,2.74056-3.33689,4.16772-4.23063,4.69306-.39936-.31336-2.88105-2.196-6.09569-1.55634-1.76604.35146-2.95176,1.30462-3.50183,1.81572-1.96808-2.44923-5.03472-3.58769-7.84664-2.91816-4.62557,1.10143-5.64642,6.40097-5.70662,6.74421-.8482,4.83132,2.98972,8.54399,4.27997,9.79212,2.68201,2.59443,5.70205,3.52871,7.26297,3.8909-1.19523-.03854-5.70519-.32587-9.53267-3.8909-3.05692-2.84738-3.98891-6.21172-4.27997-7.52242-1.10844-.30656-3.37007-.76155-5.96607,0-2.94153.86293-4.636,2.79597-5.68095,4.02059-3.1696,3.71452-3.77944,7.96339-4.31371,11.68613-.45077,3.14064-.40265,5.78677-.27446,7.60771-.20276.17695-1.64178,1.47627-1.56864,3.52935.05276,1.48199.862,2.47332,1.12288,2.76852.00007,0,2.32683-1.19881,2.04479-6.83951-.28204-5.64085.95108-7.31344.95108-7.31344-.98883,3.5157,1.31834,9.99767,1.97751,15.27118.43747,3.49961.00034,5.41357.09186,5.40619.53797-.04338,1.16351.009,6.17792.00868.01852-.59004.03323-1.61862-.17846-2.69475-.36269-1.84375-.92241-2.25405-1.18279-3.61808-.29799-1.56063.23021-2.09476.55658-4.52261.14828-1.1025.27747-2.76373.06963-4.87057,1.06046.90754,2.89528,2.23882,5.49672,3.0615,3.62387,1.14604,6.73663.67311,8.21033.34789.0025.8156.08579,2.09126.55665,3.54851.71501,2.21323,1.70348,2.92566,1.87864,4.59225.09087.86479-.02992,2.41417-1.12606,4.1323,2.20336,0,4.3986.02405,6.60189.02405.90211-2.92852.7316-5.34586.36877-6.8004-.45398-1.82008-1.41593-3.49904-1.66988-6.61001-.09945-1.21847-.0148-1.73143.10645-2.14295.54943-1.86477,2.32147-1.98373,3.36206-3.77093,1.44546-2.48276.9415-3.63624,2.27164-5.72457,1.29368-2.03113,3.07737-2.99179,5.45196-4.27074,1.47634-.79515,3.80568-1.84017,6.90585-2.40791-.36891.02738-1.0955.03139-1.90824-.31808ZM51.85958,54.27584c-.70071,0-1.26873-.56802-1.26873-1.26865,0-.70071.56802-1.26873,1.26873-1.26873s1.26873.56802,1.26873,1.26873c0,.70064-.56802,1.26865-1.26873,1.26865Z"/>
      <path class="cls-2" d="M25.63598,79.55012c-.43665.20394.77611,2.67,1.10435,6.62614.08679,1.04602.10943,2.1684.13252,3.31305.02793,1.3844.02096,2.58184.00364,3.43397,2.20871-.02946,4.42912.03616,6.63783.0067-.16691-.66514-.45447-1.8602-.81048-3.17565-.66802-2.46832-.89231-3.08012-1.016-4.15235-.09942-.86182-.14974-2.15875.1767-3.79899-1.68985.1313-3.67779-.04511-5.1242-1.32521-.55452-.49077-.89551-1.02522-1.10435-.92767Z"/>
      <path class="cls-1" d="M46.13277,78.97585c-.08584,1.08527,1.4069,2.12189,3.31306,3.4456.70858.49205,1.3274.8585,1.76696,1.10436-.67213.60687-1.42164,1.23205-2.25288,1.8553-.51143.38346-1.01359.73606-1.50192,1.06018.13017.69245.53704,2.30349,1.94366,3.57811.50699.45942,1.02326.76584,1.45775.97181.97752-.8591,3.97421-3.51127,5.43341-5.1242.10091-.11153.29372-.32816.44174-.6626.56173-1.26923-.17405-2.76141-.75096-3.79896-1.86047-3.34601-5.03334-7.29617-5.74263-8.17222-.30246.99687-.87196,2.35779-2.03201,3.57811-1.15129,1.2111-2.01314,1.36739-2.07618,2.16451Z"/>
    </g>
  </g>
</svg>