<?xml version="1.0" encoding="UTF-8"?>
<svg id="Layer_1" data-name="Layer 1" xmlns="http://www.w3.org/2000/svg" xmlns:xlink="http://www.w3.org/1999/xlink" viewBox="0 0 142.84 142.96">
  <defs>
    <style>
      .cls-1 {
        fill: url(#linear-gradient-3);
      }

      .cls-2 {
        fill: url(#linear-gradient-2);
      }

      .cls-3 {
        fill: url(#linear-gradient);
      }

      .cls-4 {
        fill: #848484;
      }

      .cls-5 {
        fill: #fff;
      }
    </style>
    <linearGradient id="linear-gradient" x1="72.96" y1="-21.79" x2="71.94" y2="55.75" gradientUnits="userSpaceOnUse">
      <stop offset=".49" stop-color="#808184"/>
      <stop offset=".71" stop-color="#f1f1f2"/>
    </linearGradient>
    <linearGradient id="linear-gradient-2" x1="75.47" y1="81.43" x2="12.61" y2="81.43" gradientUnits="userSpaceOnUse">
      <stop offset=".15" stop-color="#929497"/>
      <stop offset=".82" stop-color="#e6e7e8"/>
    </linearGradient>
    <linearGradient id="linear-gradient-3" x1="74.98" y1="62.48" x2="74.98" y2="95.28" gradientUnits="userSpaceOnUse">
      <stop offset="0" stop-color="#7c62ff"/>
      <stop offset="1" stop-color="#c9bdff"/>
    </linearGradient>
  </defs>
  <g>
    <path class="cls-3" d="M71.9,10.76l-36.43,17.07-1.86-.91v5.03s1.99-.84,1.99-.84v65.4c0,1.81.76,3.54,2.1,4.77l33.39,30.47,1.5.11,33.43-30.29c1.48-1.34,2.32-3.24,2.32-5.23l.06-65.56,2.53.93-.08-4.93-2.34.86M107.45,28.1H36.61s35.28-16.54,35.28-16.54"/>
    <polygon class="cls-2" points="35.64 31.18 35.68 99.16 71.04 131.69 67.45 125.56 37.47 98.18 36.86 33.41 35.64 31.18"/>
    <ellipse class="cls-4" cx="71.9" cy="11.86" rx="3.72" ry="3.69"/>
    <ellipse class="cls-5" cx="71.9" cy="11.77" rx="2.22" ry="2.2"/>
  </g>
  <g>
    <path class="cls-1" d="M93.87,61.66c-1.59-1.21-1.7-2.18-4.47-2.55-1.64-.22-4.5.55-10.74,8.58-.37-1.99-1.19-4.7-3.32-6.95-3.05-3.22-6.46-3.02-10.81-5.33-2.58-1.37-5.9-3.83-8.96-8.64.34,1.03.79,2.18,1.39,3.4.84,1.71,1.77,3.12,2.62,4.25-1.85-.99-3.97-2.3-6.17-4.01-2.56-1.99-4.58-4.02-6.12-5.79.23,1.33.67,2.95,1.57,4.63,2.81,5.29,7.96,7.3,9.65,7.87-.68.17-1.52.29-2.47.23-3.35-.21-5.54-2.52-6.17-3.24.62,1.06,1.9,2.92,4.17,4.48,2.18,1.5,4.29,2.03,5.48,2.24-.64.26-1.56.54-2.7.62-1.64.11-2.95-.26-3.7-.54.77.64,2.25,1.71,4.4,2.24,1.63.4,3.03.34,3.94.23-.19.35-.61.99-1.39,1.39-1.16.6-2.64.44-3.86-.39.83.6,2.1,1.41,3.78,2.01,1.64.59,2.91.71,3.32.77,1.9.28,4.64,1.93,8.34,7.95-1.15.79-2.79,2.09-4.25,4.09-1.38,1.89-1.98,3.56-2.16,4.01-.99,2.46-4.33,5.93-14.67,10.34,1.19-.21,2.46-.48,3.78-.85,3.85-1.07,7.02-2.61,9.49-4.09-.07.41-.32,1.47-1.23,2.39-1.22,1.22-2.74,1.3-3.09,1.31.58.13,1.64.28,2.86-.08.57-.17,1.04-.4,1.39-.62-.23.72-.44,1.7-.39,2.86.13,3.07,1.99,5.14,2.62,5.79-.39-1.29-.82-3.31-.69-5.79.09-1.79.17-3.67,1.23-5.56,1.06-1.88,2.2-2.2,4.79-4.55,1.8-1.64,3.1-3.17,3.94-4.25-.14.75-.44,1.87-1.16,3.01-1.52,2.41-3.46,2.66-5.02,4.94-.52.77-1.14,1.97-1.39,3.78.94-.75,2.47-1.89,4.48-3.09,4.94-2.95,5.14-1.86,9.11-4.48,4.21-3.24,2.59-14.59.93-16.36.69.74,2.03,1.65,2.7,3.32,1.62,4.02.38,6.61.29,8.01.95-1.12,3.72-6.23,4.34-8.31,1.01-3.37,1.43-4.03,2.93-5.33,1.34-1.16,2.87-1.47,4.79-1.85,3.02-.61,5.4-.15,5.4-.23,0-.06-1.14-.24-6.33-.83-.55-.2-1.55-.34-2.47-1.03Z"/>
    <circle class="cls-5" cx="91.12" cy="61.87" r="1.05"/>
  </g>
</svg>