<?xml version="1.0" encoding="UTF-8"?>
<svg id="Layer_1" data-name="Layer 1" xmlns="http://www.w3.org/2000/svg" xmlns:xlink="http://www.w3.org/1999/xlink" viewBox="0 0 142.84 142.96">
  <defs>
    <style>
      .cls-1 {
        fill: url(#linear-gradient-3);
      }

      .cls-2 {
        fill: url(#linear-gradient-2);
      }

      .cls-3 {
        fill: url(#linear-gradient);
      }

      .cls-4 {
        fill: #848484;
      }

      .cls-5 {
        fill: #fff;
      }
    </style>
    <linearGradient id="linear-gradient" x1="72.96" y1="-21.36" x2="71.94" y2="56.18" gradientUnits="userSpaceOnUse">
      <stop offset=".49" stop-color="#808184"/>
      <stop offset=".71" stop-color="#f1f1f2"/>
    </linearGradient>
    <linearGradient id="linear-gradient-2" x1="75.47" y1="81.86" x2="12.61" y2="81.86" gradientUnits="userSpaceOnUse">
      <stop offset=".15" stop-color="#929497"/>
      <stop offset=".82" stop-color="#e6e7e8"/>
    </linearGradient>
    <linearGradient id="linear-gradient-3" x1="76.72" y1="98.46" x2="76.72" y2="47.48" gradientUnits="userSpaceOnUse">
      <stop offset="0" stop-color="#c9bdff"/>
      <stop offset="1" stop-color="#7c62ff"/>
    </linearGradient>
  </defs>
  <g>
    <path class="cls-3" d="M71.9,11.19l-36.43,17.07-1.86-.91v5.03s1.99-.84,1.99-.84v65.4c0,1.81.76,3.54,2.1,4.77l33.39,30.47,1.5.11,33.43-30.29c1.48-1.34,2.32-3.24,2.32-5.23l.06-65.56,2.53.93-.08-4.93-2.34.86M107.45,28.53H36.61s35.28-16.54,35.28-16.54"/>
    <polygon class="cls-2" points="35.64 31.61 35.68 99.59 71.04 132.12 67.45 125.99 37.47 98.61 36.86 33.83 35.64 31.61"/>
    <ellipse class="cls-4" cx="71.9" cy="12.29" rx="3.72" ry="3.69"/>
    <ellipse class="cls-5" cx="71.9" cy="12.2" rx="2.22" ry="2.2"/>
  </g>
  <g>
    <path class="cls-1" d="M72.65,43.55c-.25.14,1.27,2.27.43,3.47-.25.35-.63.52-.89.61.18-.37.38-.95.35-1.65-.09-1.94-1.98-3.78-3.9-4.07-1.87-.29-3.75.87-6.17,2.37-1.04.64-1.8,1.24-3.14,1.49-1.61.3-2.75-.39-2.91-.11-.21.38,1.49,1.94,3.49,2.81,3.01,1.3,6.22.8,8.5.11-.12.23-.35.59-.76.94-.42.35-.85.52-1.11.61.28.06.73.13,1.28.06.39-.06.71-.17.93-.28-.51.69-1.12,1.6-1.75,2.7-.16.28-.78,1.4-1.28,2.59-.98,2.35-.84,3.5-1.34,5.4-.83,3.12-2.12,3.41-2.93,5.7-.64,1.84-.87,4.65,1.21,8.83-.1-.8-.21-2-.22-3.47-.02-2.84,0-4.28.88-5.36.88-1.07,1.67-.81,2.86-2.08.95-1.02,1.35-2.15,1.54-2.91.14.75.23,1.86-.22,3.01-.67,1.72-2.07,2.32-2.86,3.22-1.06,1.22-1.6,3.66.77,9.04-.15-.99-.2-2.15,0-3.43.22-1.42.52-3.3,1.98-4.68,1.09-1.03,1.82-.82,2.69-1.89.83-1.02.99-2.22,1-3.06.21.64.44,1.62.18,2.72-.47,1.98-2.03,2.37-3.23,3.95-2.84,3.73-.37,9.86.29,11.5.61,1.51,1.32,2.66,1.82,3.39-.37-.17-.86-.45-1.35-.89-.72-.65-1.1-1.34-1.29-1.78.03,2.41.06,4.81.08,7.22.05,1.86.5,3.23.92,4.15.7,1.53,1.36,1.92,1.46,3.13.15,1.69-.94,3.04-1.31,3.49-1.67,2.07-4.19,2.46-4.84,2.55h4.84c.85-.56,1.86-1.34,2.84-2.4.55-.59,1.51-1.72,2.34-3.34.23-.44.39-.82.51-1.1-.25.37-.79,1.07-1.77,1.51-.37.17-.72.26-1.01.31.36-.36.87-.94,1.29-1.74.69-1.33.67-2.43.78-3.09.19-1.19,1.06-2.84,4.19-4.66-.12.3-.28.74-.41,1.26-.99,3.95.13,10.68,5.85,13.26,4.46,2.01,10.19.82,13.8-3.07-.71.48-3.72,2.44-7.88,1.98-.46-.05-4.67-.57-7.27-3.73-2.78-3.38-1.22-6.75-1.6-13.29-.45-7.67-2.79-6.44-4.07-15.62-.51-3.65-.16-4.18-.48-12.21-.29-7.39-.5-4.09-.5-6.56,0-1.43.06-3.09-.9-4.93-.67-1.28-1.54-2.06-1.71-1.97Z"/>
    <ellipse class="cls-5" cx="65.56" cy="45" rx="1.02" ry=".97"/>
  </g>
</svg>