<?xml version="1.0" encoding="UTF-8"?>
<svg id="Layer_2" data-name="Layer 2" xmlns="http://www.w3.org/2000/svg" width="77.34877" height="123.68995" xmlns:xlink="http://www.w3.org/1999/xlink" viewBox="0 0 77.34877 123.68995">
  <defs>
    <style>
      .cls-1 {
        fill: url(#linear-gradient-5);
      }

      .cls-2 {
        fill: url(#linear-gradient-4);
      }

      .cls-3 {
        fill: url(#linear-gradient-3);
      }

      .cls-4 {
        fill: url(#linear-gradient-2);
      }

      .cls-5 {
        fill: url(#linear-gradient);
      }

      .cls-6 {
        fill: #848484;
      }

      .cls-7 {
        fill: #fff;
      }
    </style>
    <linearGradient id="linear-gradient" x1="39.34973" y1="-29.95536" x2="38.33266" y2="47.58614" gradientUnits="userSpaceOnUse">
      <stop offset=".48594" stop-color="#808184"/>
      <stop offset=".70643" stop-color="#f1f1f2"/>
    </linearGradient>
    <linearGradient id="linear-gradient-2" x1="41.86066" y1="73.26769" x2="-20.99842" y2="73.26769" gradientUnits="userSpaceOnUse">
      <stop offset=".15051" stop-color="#929497"/>
      <stop offset=".81613" stop-color="#e6e7e8"/>
    </linearGradient>
    <linearGradient id="linear-gradient-3" x1="38.28079" y1="91.15819" x2="38.28079" y2="48.27015" gradientTransform="translate(-.77956 -7.95458) rotate(-.66679)" gradientUnits="userSpaceOnUse">
      <stop offset="0" stop-color="#7c62ff"/>
      <stop offset="1" stop-color="#c9bdff"/>
    </linearGradient>
    <linearGradient id="linear-gradient-4" x1="26.31759" y1="89.39861" x2="26.31759" y2="75.78143" xlink:href="#linear-gradient-3"/>
    <linearGradient id="linear-gradient-5" x1="46.60053" y1="94.64364" x2="46.60053" y2="81.69064" xlink:href="#linear-gradient-3"/>
  </defs>
  <g id="Layer_1-2" data-name="Layer 1">
    <g>
      <path class="cls-5" d="M38.29928,2.59169L1.8658,19.66506.01004,18.75733l-.01004,5.03073,2.00373-.83806v65.39977c0,1.81333.7633,3.54291,2.10293,4.76504l33.39468,30.46569,1.50407.10946,33.43002-30.28885c1.47785-1.33898,2.32164-3.23972,2.3235-5.23394l.06111-65.55531,2.52873.93149-.07985-4.93451-2.34234.85597M73.84726,19.93577l-70.83778.00264L38.29025,3.39112"/>
      <polygon class="cls-4" points="2.03955 23.01319 2.0766 90.99829 37.43744 123.5222 33.84003 117.39525 3.86471 90.01765 3.25455 25.23936 2.03955 23.01319"/>
      <ellipse class="cls-6" cx="38.29006" cy="3.69292" rx="3.72428" ry="3.69292"/>
      <ellipse class="cls-7" cx="38.29842" cy="3.60219" rx="2.2229" ry="2.20418"/>
    </g>
    <g>
      <path class="cls-3" d="M33.71424,59.40769c-1.36088.2305-1.40194.9357-3.73886,2.48519-3.25176,2.15609-4.76892,4.97875-5.36557,6.27807-3.48584.37788-6.97177.75577-10.45762,1.13365.07502,3.39412.14995,6.78823.22497,10.18237.3419.00295.84272-.03967,1.25397-.31065.84796-.55877.69753-1.68188.73952-3.05715.02755-.90307.14714-2.21139.58524-3.82778.86613.37423,4.40806,1.79804,8.719.80094,5.72528-1.32423,7.88733-5.78053,8.11803-6.28011.22089,1.25809,1.00296,4.56026,4.26568,7.57929,3.26136,3.01772,7.09853,3.99201,8.5688,4.29894.48468,1.75845.96928,3.51685,1.45389,5.27524,7.37939,1.93079,10.04264,2.02572,10.99541,1.65899.19694-.07582,1.3181-.55524,2.5357-.30442.19113.03937.48845.1029.76523.27188,1.1588.70739.73823,2.51826.70969,2.63344.27284-.1629,1.08278-.69142,1.3087-1.59507.31649-1.26573-.70496-2.49997-1.82462-2.95711-1.16548-.47587-1.95915.08547-3.54889.06716-1.23686-.0142-2.95846-.37934-5.02315-1.96169.11187-1.88324.22367-3.76656.33554-5.64982.89856.11634,2.30985.1681,3.78415-.36656.15633-.05668,2.53846-.94121,2.44845-1.9173-.01709-.18526-.10402-.16579-.39389-.8247-.27224-.61867-.40708-.93428-.3439-1.23987.10327-.49937.57688-.5864.75784-.93023.44819-.85142-1.13286-2.83331-3.33462-3.46244-2.44242-.69788-5.28629.37256-6.45707,1.87183-.4628.59276-.35713.85931-.67904.99745-.58229.24988-7.7331-2.74781-10.79503-10.30673-.91017-2.24694-1.12993-4.08541-1.3611-6.01939-.754-6.30803.94929-8.05168.33437-11.44354-.99122-5.46752-7.406-11.90777-14.72262-11.21346-4.61283.43774-9.03281,3.659-10.6565,8.21323-2.24316,6.29176,1.4543,13.43458,6.63167,15.50203,4.32139,1.72563,10.28869.16094,10.58136-1.47135.09651-.53825-.58297-.72298-1.22076-.63769-1.62549.21738-1.9111.45054-5.87267.25171-3.37597-.16944-7.62743-3.93442-7.8189-8.84495-.15929-4.08532,2.07808-7.75355,5.57178-8.86601,4.39403-1.39914,8.51727-.73354,10.9375,1.65399,4.71093,4.64727,4.04485,9.45724,2.83602,15.26453-.88458,4.24957-.81721,6.37592-.84772,7.0681ZM58.59323,71.87426s.45623.9519.60592,1.86064-3.15699,1.27407-3.15699,1.27407c-2.07799-1.63338,1.30655-2.48986,1.30655-2.48986-.76828-1.46184,1.24452-.64485,1.24452-.64485ZM55.92508,69.73418s-2.72575.07839-1.55395,2.74952c0,0-3.45265-5.00251,1.55395-2.74952Z"/>
      <path class="cls-2" d="M26.96344,74.04523s4.64611-2.74256,6.53829-5.34552c0,0,2.62214,10.56211-9.38933,13.65923,0,0,4.35865,5.59509,2.57709,6.69122l-7.40265-8.35568s9.31223-3.76472,7.6766-6.64924Z"/>
      <path class="cls-1" d="M41.01056,77.07195l-1.04657,6.84769s6.54404,6.16112,11.60274,5.8334c0,0,.84485,1.01179.16506,3.17049,0,0,2.69423.23749,2.07064-3.78798,0,0-9.20949-3.92554-6.92473-5.83407l-1.45342-3.74696s-3.74932-.86115-4.41373-2.48256Z"/>
    </g>
  </g>
</svg>