<?xml version="1.0" encoding="UTF-8"?>
<svg id="Layer_2" data-name="Layer 2" xmlns="http://www.w3.org/2000/svg" width="77.34877" height="123.68995" xmlns:xlink="http://www.w3.org/1999/xlink" viewBox="0 0 77.34877 123.68995">
  <defs>
    <style>
      .cls-1 {
        fill: url(#linear-gradient-5);
      }

      .cls-2 {
        fill: url(#linear-gradient-4);
      }

      .cls-3 {
        fill: url(#linear-gradient-3);
      }

      .cls-4 {
        fill: url(#linear-gradient-2);
      }

      .cls-5 {
        fill: url(#linear-gradient);
      }

      .cls-6 {
        fill: #848484;
      }

      .cls-7 {
        fill: #fff;
      }
    </style>
    <linearGradient id="linear-gradient" x1="39.34973" y1="-29.95536" x2="38.33266" y2="47.58614" gradientUnits="userSpaceOnUse">
      <stop offset=".48594" stop-color="#808184"/>
      <stop offset=".70643" stop-color="#f1f1f2"/>
    </linearGradient>
    <linearGradient id="linear-gradient-2" x1="41.86066" y1="73.26769" x2="-20.99842" y2="73.26769" gradientUnits="userSpaceOnUse">
      <stop offset=".15051" stop-color="#929497"/>
      <stop offset=".81613" stop-color="#e6e7e8"/>
    </linearGradient>
    <linearGradient id="linear-gradient-3" x1="38.28079" y1="91.15819" x2="38.28079" y2="48.27015" gradientTransform="translate(77.48091 -7.95458) rotate(-179.33321) scale(1 -1)" gradientUnits="userSpaceOnUse">
      <stop offset="0" stop-color="#7c62ff"/>
      <stop offset="1" stop-color="#c9bdff"/>
    </linearGradient>
    <linearGradient id="linear-gradient-4" x1="26.31759" y1="89.39861" x2="26.31759" y2="75.78143" xlink:href="#linear-gradient-3"/>
    <linearGradient id="linear-gradient-5" x1="46.60053" y1="94.64364" x2="46.60053" y2="81.69064" xlink:href="#linear-gradient-3"/>
  </defs>
  <g id="Layer_1-2" data-name="Layer 1">
    <g>
      <path class="cls-5" d="M38.29928,2.59169L1.8658,19.66506.01004,18.75733l-.01004,5.03073,2.00373-.83806v65.39977c0,1.81333.7633,3.54291,2.10293,4.76504l33.39468,30.46569,1.50407.10946,33.43002-30.28885c1.47785-1.33898,2.32164-3.23972,2.3235-5.23394l.06111-65.55531,2.52873.93149-.07985-4.93451-2.34234.85597M73.84726,19.93577l-70.83778.00264L38.29025,3.39112"/>
      <polygon class="cls-4" points="2.03955 23.01319 2.0766 90.99829 37.43744 123.5222 33.84003 117.39525 3.86471 90.01765 3.25455 25.23936 2.03955 23.01319"/>
      <ellipse class="cls-6" cx="38.29006" cy="3.69292" rx="3.72428" ry="3.69292"/>
      <ellipse class="cls-7" cx="38.29842" cy="3.60219" rx="2.2229" ry="2.20418"/>
    </g>
    <g>
      <path class="cls-3" d="M42.1394,52.33959c-1.20883-5.80729-1.87491-10.61726,2.83602-15.26453,2.42024-2.38753,6.54347-3.05313,10.9375-1.65399,3.4937,1.11246,5.73107,4.78068,5.57178,8.86601-.19147,4.91052-4.44293,8.67551-7.8189,8.84495-3.96157.19883-4.24718-.03432-5.87267-.25171-.63779-.08529-1.31727.09944-1.22076.63769.29268,1.63229,6.25997,3.19698,10.58136,1.47135,5.17737-2.06745,8.87483-9.21027,6.63167-15.50203-1.62369-4.55423-6.04367-7.77549-10.6565-8.21323-7.31662-.69431-13.7314,5.74594-14.72262,11.21346-.61492,3.39186,1.08837,5.13552.33437,11.44354-.23117,1.93398-.45092,3.77245-1.3611,6.01939-3.06193,7.55893-10.21273,10.55661-10.79503,10.30673-.32191-.13813-.21624-.40469-.67904-.99745-1.17078-1.49927-4.01465-2.56971-6.45707-1.87183-2.20176.62913-3.78281,2.61101-3.33462,3.46244.18095.34383.65457.43086.75784.93023.06318.30559-.07166.62119-.3439,1.23987-.28987.65891-.3768.63944-.39389.8247-.09001.97609,2.29212,1.86062,2.44845,1.9173,1.4743.53466,2.88558.4829,3.78415.36656.11187,1.88326.22367,3.76658.33554,5.64982-2.06469,1.58235-3.78629,1.94749-5.02315,1.96169-1.58974.0183-2.38341-.54303-3.54889-.06716-1.11966.45714-2.14111,1.69138-1.82462,2.95711.22592.90365,1.03586,1.43217,1.3087,1.59507-.02853-.11518-.44911-1.92604.70969-2.63344.27678-.16898.5741-.23251.76523-.27188,1.2176-.25082,2.33876.2286,2.5357.30442.95277.36674,3.61603.2718,10.99541-1.65899.4846-1.75839.9692-3.51678,1.45389-5.27524,1.47027-.30693,5.30744-1.28121,8.5688-4.29894,3.26272-3.01904,4.04479-6.32121,4.26568-7.57929.2307.49958,2.39275,4.95589,8.11803,6.28011,4.31094.9971,7.85287-.42671,8.719-.80094.4381,1.61639.55769,2.92471.58524,3.82778.04199,1.37527-.10844,2.49838.73952,3.05715.41125.27098.91207.3136,1.25397.31065.07502-3.39413.14995-6.78825.22497-10.18237-3.48585-.37788-6.97177-.75577-10.45762-1.13365-.59665-1.29932-2.11381-4.12198-5.36557-6.27807-2.33692-1.54949-2.37798-2.25469-3.73886-2.48519-.03051-.69218.03686-2.81853-.84772-7.0681ZM19.35264,72.51911s3.38454.85647,1.30655,2.48986c0,0-3.30668-.36533-3.15699-1.27407s.60592-1.86064.60592-1.86064c0,0,2.0128-.81699,1.24452.64485ZM22.33022,72.4837c1.17181-2.67113-1.55395-2.74952-1.55395-2.74952,5.0066-2.25299,1.55395,2.74952,1.55395,2.74952Z"/>
      <path class="cls-2" d="M49.73791,74.04523s-4.64611-2.74256-6.53829-5.34552c0,0-2.62214,10.56211,9.38933,13.65923,0,0-4.35865,5.59509-2.57709,6.69122l7.40265-8.35568s-9.31223-3.76472-7.6766-6.64924Z"/>
      <path class="cls-1" d="M35.69079,77.07195l1.04657,6.84769s-6.54404,6.16112-11.60274,5.8334c0,0-.84485,1.01179-.16506,3.17049,0,0-2.69423.23749-2.07064-3.78798,0,0,9.20949-3.92554,6.92473-5.83407l1.45342-3.74696s3.74932-.86115,4.41373-2.48256Z"/>
    </g>
  </g>
</svg>