<?xml version="1.0" encoding="UTF-8"?>
<svg id="Layer_1" data-name="Layer 1" xmlns="http://www.w3.org/2000/svg" xmlns:xlink="http://www.w3.org/1999/xlink" viewBox="0 0 142.84 142.96">
  <defs>
    <style>
      .cls-1 {
        fill: url(#linear-gradient-3);
      }

      .cls-2 {
        fill: url(#linear-gradient-2);
      }

      .cls-3 {
        fill: url(#linear-gradient);
      }

      .cls-4 {
        fill: #848484;
      }

      .cls-5 {
        fill: #fff;
      }
    </style>
    <linearGradient id="linear-gradient" x1="72.25" y1="-20.01" x2="71.24" y2="57.53" gradientUnits="userSpaceOnUse">
      <stop offset=".49" stop-color="#808184"/>
      <stop offset=".71" stop-color="#f1f1f2"/>
    </linearGradient>
    <linearGradient id="linear-gradient-2" x1="74.76" y1="83.21" x2="11.9" y2="83.21" gradientUnits="userSpaceOnUse">
      <stop offset=".15" stop-color="#929497"/>
      <stop offset=".82" stop-color="#e6e7e8"/>
    </linearGradient>
    <linearGradient id="linear-gradient-3" x1="72.25" y1="56.72" x2="72.25" y2="89.37" gradientUnits="userSpaceOnUse">
      <stop offset="0" stop-color="#7c62ff"/>
      <stop offset="1" stop-color="#c9bdff"/>
    </linearGradient>
  </defs>
  <g>
    <path class="cls-3" d="M71.2,12.54l-36.43,17.07-1.86-.91v5.03s1.99-.84,1.99-.84v65.4c0,1.81.76,3.54,2.1,4.77l33.39,30.47,1.5.11,33.43-30.29c1.48-1.34,2.32-3.24,2.32-5.23l.06-65.56,2.53.93-.08-4.93-2.34.86M106.75,29.88H35.91s35.28-16.54,35.28-16.54"/>
    <polygon class="cls-2" points="34.94 32.96 34.98 100.95 70.34 133.47 66.74 127.34 36.77 99.96 36.16 35.19 34.94 32.96"/>
    <ellipse class="cls-4" cx="71.19" cy="13.64" rx="3.72" ry="3.69"/>
    <ellipse class="cls-5" cx="71.2" cy="13.55" rx="2.22" ry="2.2"/>
  </g>
  <g>
    <path class="cls-1" d="M72.25,83.38c-1.31,2.45-2.71,4.04-3.72,5.03-2.12,2.06-3.28,2.2-4.45,4.22-.47.81-1.76,3.03-1.05,5.51.66,2.29,2.59,3.32,3.02,3.54-.68-.21-3.66-1.23-4.75-4.15-1.16-3.11.49-6.56.86-7.34.94-1.96,1.88-2.43,2.28-4.35.34-1.64.04-3.11-.25-4.08-.85.87-2.24,2.01-4.13,2.45-2,.46-2.75-.29-5.49-.07-2.03.17-4.19.34-5.37,2.08-.77,1.14-1.28,3.19-.31,4.79.97,1.6,2.8,1.69,3.02,1.7-.46.13-1.2.25-2.04,0-1.82-.55-2.99-2.6-3.15-4.49-.19-2.31,1.19-3.98,1.6-4.49,1.31-1.59,2.98-2.13,4.81-2.72,2.21-.72,3.11-.48,4.69-1.5,1.03-.66,1.73-1.47,2.16-2.04-.9.16-2.72.33-4.46-.74-1.55-.95-2.32-2.45-3.05-3.9-1.79-3.6-1.13-5.54-2.83-6.79-.83-.61-2.25-1.07-3.29-.31-.79.58-1.28,1.79-1.03,2.97.3,1.38,1.44,1.94,1.56,1.99-1.34-.35-2.38-1.48-2.66-2.89-.41-2.07,1.04-3.54,1.13-3.63,1.39-1.37,3.5-1.09,4.78-.39,1.51.82,2.33,2.47,3.31,4.45.92,1.85,1.11,2.97,2.28,3.66.06.03,1.46.84,2.1.19.45-.46.3-1.39.26-1.59-.14-.71-.52-1.1-.78-1.46-.69-.98-.71-2.14-.73-3.43-.01-.71-.15-1.72,2.27-6.79.54-1.13,1.16-2.22.79-3.32-.3-.88-1.19-1.63-2.22-1.68-1.14-.06-1.89.78-2,.91.88-1.6,2.26-2.5,3.38-2.21,1.87.48,2.08,4.09,2.09,4.25.12,2.57-1.29,3.06-1.45,5.76-.13,2.27.66,5.5,2.65,6.2,1.25.44,2.64-.24,3.46-1.06,1.56-1.58,1.29-3.95,1.21-4.52-.28-1.85-1.22-1.99-1.93-3.99-.98-2.77-.22-5.49,0-6.2.24-.78,1.29-3.79,4.18-5.32,1.3-.68,2.5-.82,3.24-.84h.02c.74.02,1.92.15,3.22.84,2.89,1.52,3.94,4.53,4.18,5.32.22.72.98,3.43,0,6.2-.71,2-1.65,2.14-1.93,3.99-.08.57-.35,2.94,1.21,4.52.82.83,2.2,1.5,3.46,1.06,1.99-.7,2.78-3.94,2.65-6.2-.16-2.69-1.57-3.19-1.45-5.76,0-.16.22-3.77,2.09-4.25,1.12-.29,2.49.62,3.38,2.21-.11-.13-.86-.97-2-.91-1.03.05-1.93.81-2.22,1.68-.37,1.1.25,2.19.79,3.32,2.42,5.07,2.28,6.08,2.27,6.79-.02,1.29-.04,2.45-.73,3.43-.26.37-.64.75-.78,1.46-.04.2-.19,1.13.26,1.59.65.65,2.05-.16,2.1-.19,1.17-.69,1.36-1.81,2.28-3.66.98-1.97,1.8-3.63,3.31-4.45,1.28-.7,3.39-.98,4.78.39.09.09,1.54,1.57,1.13,3.63-.28,1.41-1.31,2.54-2.66,2.89.12-.06,1.26-.61,1.56-1.99.25-1.18-.23-2.39-1.03-2.97-1.05-.76-2.47-.29-3.29.31-1.71,1.25-1.04,3.2-2.83,6.79-.73,1.46-1.49,2.95-3.05,3.9-1.74,1.07-3.56.9-4.46.74.43.57,1.13,1.37,2.16,2.04,1.57,1.02,2.47.78,4.69,1.5,1.83.59,3.5,1.13,4.81,2.72.42.51,1.79,2.17,1.6,4.49-.15,1.89-1.33,3.93-3.15,4.49-.83.25-1.58.13-2.04,0,.22,0,2.05-.1,3.02-1.7.97-1.6.46-3.65-.31-4.79-1.17-1.74-3.33-1.92-5.37-2.08-2.74-.22-3.49.53-5.49.07-1.89-.44-3.28-1.58-4.13-2.45-.29.97-.59,2.44-.25,4.08.4,1.93,1.35,2.39,2.28,4.35.37.78,2.02,4.24.86,7.34-1.09,2.92-4.07,3.93-4.75,4.15.43-.22,2.37-1.24,3.02-3.54.71-2.48-.58-4.7-1.05-5.51-1.17-2.02-2.34-2.15-4.45-4.22-1.02-.99-2.41-2.58-3.72-5.03"/>
    <circle class="cls-5" cx="68.87" cy="63.82" r=".95"/>
    <circle class="cls-5" cx="75.76" cy="63.82" r=".95"/>
  </g>
</svg>