<?xml version="1.0" encoding="UTF-8"?>
<svg id="Layer_1" data-name="Layer 1" xmlns="http://www.w3.org/2000/svg" xmlns:xlink="http://www.w3.org/1999/xlink" viewBox="0 0 142.84 142.96">
  <defs>
    <style>
      .cls-1 {
        fill: url(#linear-gradient-3);
      }

      .cls-2 {
        fill: url(#linear-gradient-2);
      }

      .cls-3 {
        fill: url(#linear-gradient);
      }

      .cls-4 {
        fill: #848484;
      }

      .cls-5 {
        fill: #fff;
      }
    </style>
    <linearGradient id="linear-gradient" x1="72.15" y1="-22.18" x2="71.13" y2="55.36" gradientUnits="userSpaceOnUse">
      <stop offset=".49" stop-color="#808184"/>
      <stop offset=".71" stop-color="#f1f1f2"/>
    </linearGradient>
    <linearGradient id="linear-gradient-2" x1="74.66" y1="81.05" x2="11.8" y2="81.05" gradientUnits="userSpaceOnUse">
      <stop offset=".15" stop-color="#929497"/>
      <stop offset=".82" stop-color="#e6e7e8"/>
    </linearGradient>
    <linearGradient id="linear-gradient-3" x1="71.55" y1="51.62" x2="71.55" y2="101.43" gradientUnits="userSpaceOnUse">
      <stop offset="0" stop-color="#7c62ff"/>
      <stop offset="1" stop-color="#c9bdff"/>
    </linearGradient>
  </defs>
  <g>
    <path class="cls-3" d="M71.1,10.37l-36.43,17.07-1.86-.91v5.03s1.99-.84,1.99-.84v65.4c0,1.81.76,3.54,2.1,4.77l33.39,30.47,1.5.11,33.43-30.29c1.48-1.34,2.32-3.24,2.32-5.23l.06-65.56,2.53.93-.08-4.93-2.34.86M106.65,27.71H35.81s35.28-16.54,35.28-16.54"/>
    <polygon class="cls-2" points="34.84 30.79 34.88 98.78 70.24 131.3 66.64 125.17 36.66 97.8 36.05 33.02 34.84 30.79"/>
    <ellipse class="cls-4" cx="71.09" cy="11.47" rx="3.72" ry="3.69"/>
    <ellipse class="cls-5" cx="71.1" cy="11.38" rx="2.22" ry="2.2"/>
  </g>
  <g>
    <path class="cls-1" d="M64.23,50.64c2.41,2.81,1.31,4.69,3.6,7.2,1.56,1.71,3.41,2.32,5.49,2.97,5.25,1.65,7.35.07,10.98.81,6.2,1.26,12.21,8.31,12.15,14.4-.04,4.32-3.18,11.18-3.96,12.51-.17.3-.61.97-.81,1.98-.21,1.09.07,1.45-.18,1.98-.46.98-2.03,1.04-3.6,1.26-1.4.2-3.34.61-5.67,1.53.08-.22.21-.47.4-.74.37-.53.82-.84,1.11-1.01-.35.05-.86.17-1.4.48-.27.16-.48.33-.65.48.19-.5.55-1.19,1.23-1.71,1.41-1.07,2.8-.34,3.9-1.42.72-.7,1.07-1.93.65-2.46-.58-.75-2.57-.03-3.06.14-3.1,1.11-4.62,3.59-5.64,4.73-3.9,4.35-13.01,3.21-17.95,1.51-10.39-3.58-13.81-13.59-14.18-14.74,1.19,1.86,3.42,4.77,7.14,7.04,2.08,1.26,9.8,6.1,16.68,2.68,5.49-2.73,8.65-9.81,7.53-17.39,0,.24-.05,3.06-1.69,3.8-.74.34-1.69.18-2.39.07-1.02-.17-1.28-.45-2.37-.56-.68-.07-1.25-.13-1.79.07-1.13.41-1.04,1.53-2.18,3.17-.37.52-2.18,3.12-4.43,3.17-.62.01-1.13-.17-2.04.07-.75.2-1.32.56-1.69.84-.01-.21,0-.58.17-.98.3-.71.9-1.04,1.08-1.13-.39.07-1.05.24-1.69.74-.28.22-.49.45-.65.65-.07-.47-.08-1.11.3-1.56.6-.72,1.62-.29,2.82-.69,2-.67,2.81-3.06,2.86-3.21.35-1.08.02-2.5-.65-5.29-.7-2.9-1.02-3.29-1-4.46.03-1.96.94-3.54,1.69-4.55-.63.43-1.75,1.33-2.51,2.86-1.35,2.71-.54,5.35-.35,5.94-1.88-1.4-2.87-2.82-3.42-3.81-.62-1.11-1.88-3.84-2.38-7.41-.17-1.17-.23-2.25-1.08-3.12-.79-.8-1.87-1.02-2.64-1.08,1.44-.31,2.25-.03,2.73.3,1.05.72.99,2,1.95,4.25.52,1.22,1.1,2.16,1.52,2.77-.08-.78-.09-1.91.35-3.12.73-1.99,2.04-2.47,2.51-4.12.24-.85.29-2.14-.65-3.99-.28,1.16-.81,1.79-1.17,2.12-1.75,1.61-5.19,1.43-8.41-.69.09-.05.59-.34.74-.95.1-.44.02-1.05-.43-1.39-.52-.38-1.29-.26-1.73.22-.4.43-.48,1.1-.17,1.65-.28-.32-.61-.82-.56-1.39.06-.73.71-1.16,2.38-2.34,2.56-1.81,2.39-1.75,2.64-1.86,1.99-.92,3.9-.69,4.55-.61,3.33.44,5.45,2.73,6.04,3.41Z"/>
    <circle class="cls-5" cx="56.07" cy="50.94" r=".91"/>
  </g>
</svg>