<?xml version="1.0" encoding="UTF-8"?>
<svg id="Layer_1" data-name="Layer 1" xmlns="http://www.w3.org/2000/svg" xmlns:xlink="http://www.w3.org/1999/xlink" viewBox="0 0 142.84 142.96">
  <defs>
    <style>
      .cls-1 {
        fill: url(#linear-gradient-3);
      }

      .cls-2 {
        fill: url(#linear-gradient-2);
      }

      .cls-3 {
        fill: url(#linear-gradient);
      }

      .cls-4 {
        fill: #848484;
      }

      .cls-5 {
        fill: #fff;
      }
    </style>
    <linearGradient id="linear-gradient" x1="72.96" y1="-21.7" x2="71.94" y2="55.84" gradientUnits="userSpaceOnUse">
      <stop offset=".49" stop-color="#808184"/>
      <stop offset=".71" stop-color="#f1f1f2"/>
    </linearGradient>
    <linearGradient id="linear-gradient-2" x1="75.47" y1="81.52" x2="12.61" y2="81.52" gradientUnits="userSpaceOnUse">
      <stop offset=".15" stop-color="#929497"/>
      <stop offset=".82" stop-color="#e6e7e8"/>
    </linearGradient>
    <linearGradient id="linear-gradient-3" x1="72.35" y1="65.51" x2="72.35" y2="81.73" gradientUnits="userSpaceOnUse">
      <stop offset="0" stop-color="#7c62ff"/>
      <stop offset="1" stop-color="#c9bdff"/>
    </linearGradient>
  </defs>
  <g>
    <path class="cls-3" d="M71.9,10.85l-36.43,17.07-1.86-.91v5.03s1.99-.84,1.99-.84v65.4c0,1.81.76,3.54,2.1,4.77l33.39,30.47,1.5.11,33.43-30.29c1.48-1.34,2.32-3.24,2.32-5.23l.06-65.56,2.53.93-.08-4.93-2.34.86M107.45,28.19H36.61s35.28-16.54,35.28-16.54"/>
    <polygon class="cls-2" points="35.64 31.27 35.68 99.25 71.04 131.78 67.45 125.65 37.47 98.27 36.86 33.5 35.64 31.27"/>
    <ellipse class="cls-4" cx="71.9" cy="11.95" rx="3.72" ry="3.69"/>
    <ellipse class="cls-5" cx="71.9" cy="11.86" rx="2.22" ry="2.2"/>
  </g>
  <g>
    <path class="cls-1" d="M85.71,78.17c1.35.06,1.64.09,2.46-.15-.26-.07-.68-.63-1.45-2.03-.84-1.54-.56-3.14-.51-3.42.11.6.35,1.52.9,2.46.39.67,1.52,2.58,3.26,2.53,1.48-.04,2.45-1.48,2.64-1.78.06.37.08.84-.11,1.27-.19.45-.49.63-.46.71.09.23,2.4-.89,2.4-.89,4.14-2.01,5-2.83,5.42-3.26.69-.72,1.19-1.43,1.53-1.96-.95.84-1.8,1.22-2.4,1.41-1.35.43-2.26.16-3.72.9-.52.26-.91.55-1.16.75.35-.86.92-1.98,1.82-3.07,1.81-2.18,3.89-2.9,4.88-3.16-.79-.07-1.79-.14-2.94-.2-2.26-.12-2.94-.07-4.01-.4-.75-.23-1.66-.65-2.65-1.41-.57.21-1.41.61-2.27,1.41-.64.59-1.1,1.21-1.41,1.71,0-.4.05-1.04.29-1.76.24-.72.56-1.22.79-1.51-.79-.45-1.88-1.02-3.22-1.57-1.87-.76-4-1.63-6.7-1.75-1.99-.09-3.71.26-6.28-.15-.36-.06-.99-.17-1.74-.55-1.27-.65-2.1-1.67-2.56-2.36-.32.55-.65,1.23-.95,2.06-.53,1.46-.72,2.8-.79,3.77-.11-.2-.22-.44-.33-.73-.12-.35-.19-.67-.24-.94-.38.52-1.01,1.26-1.94,1.84-1.25.79-2.38.87-3.21.92-2.1.12-3.84-.55-4.96-1.15,0,.42.02.9.09,1.43.15,1.05.45,1.89.71,2.47-.28-.01-.65-.03-1.42-.31-.83-.31-.81-.44-1.56-.72-1.14-.43-2.28-1.15-4.46-3.49-1.63-1.75-1.59-2.05-2.49-2.72-1.36-1-2.74-1.27-3.72-1.34.63.49,3.72,3.03,4.47,7.85.67,4.3-.97,7.67-1.62,9-1.06,2.19-2.37,3.6-3.23,4.39,2.84-1.61,4.8-3.39,6.08-4.73,1.75-1.84,2.45-3.12,4.28-3.92,1.82-.81,3.43-.56,4.85-.35,1.44.22,3.96.85,6.75,3-.68-.39-1.79-.9-3.21-.96-.75-.03-1.4.07-1.91.2.37.3.85.78,1.29,1.5.74,1.21.94,2.43,1.01,3.07.62-.36,1.47-.82,2.53-1.23.81-.32,2.65-.97,5.4-1.16,2.21-.16,2.91.13,6.41.34,2.15.13,3.88.14,4.95.14-.63-.18-1.72-.61-2.76-1.71-1.86-1.98-2.14-4.64-2.19-5.33.54.74,1.22,2.29,1.89,3.1,2.84,3.42,5.19,3.53,5.7,3.67"/>
    <ellipse class="cls-5" cx="93.44" cy="69.85" rx="1.04" ry="1.26"/>
  </g>
</svg>