<?xml version="1.0" encoding="UTF-8"?>
<svg id="Layer_1" data-name="Layer 1" xmlns="http://www.w3.org/2000/svg" xmlns:xlink="http://www.w3.org/1999/xlink" viewBox="0 0 142.84 142.96">
  <defs>
    <style>
      .cls-1 {
        fill: url(#linear-gradient-3);
      }

      .cls-2 {
        fill: url(#linear-gradient-2);
      }

      .cls-3 {
        fill: url(#linear-gradient);
      }

      .cls-4 {
        fill: #848484;
      }

      .cls-5 {
        fill: #fff;
      }
    </style>
    <linearGradient id="linear-gradient" x1="72.15" y1="-21.54" x2="71.13" y2="56" gradientUnits="userSpaceOnUse">
      <stop offset=".49" stop-color="#808184"/>
      <stop offset=".71" stop-color="#f1f1f2"/>
    </linearGradient>
    <linearGradient id="linear-gradient-2" x1="74.66" y1="81.68" x2="11.8" y2="81.68" gradientUnits="userSpaceOnUse">
      <stop offset=".15" stop-color="#929497"/>
      <stop offset=".82" stop-color="#e6e7e8"/>
    </linearGradient>
    <linearGradient id="linear-gradient-3" x1="69.46" y1="73.35" x2="84.66" y2="73.35" gradientUnits="userSpaceOnUse">
      <stop offset="0" stop-color="#7c62ff"/>
      <stop offset="1" stop-color="#c9bdff"/>
    </linearGradient>
  </defs>
  <circle class="cls-5" cx="131.98" cy="50.31" r="2.72"/>
  <g>
    <path class="cls-3" d="M71.1,11.01l-36.43,17.07-1.86-.91v5.03s1.99-.84,1.99-.84v65.4c0,1.81.76,3.54,2.1,4.77l33.39,30.47,1.5.11,33.43-30.29c1.48-1.34,2.32-3.24,2.32-5.23l.06-65.56,2.53.93-.08-4.93-2.34.86M106.65,28.35H35.81s35.28-16.54,35.28-16.54"/>
    <polygon class="cls-2" points="34.84 31.43 34.88 99.42 70.24 131.94 66.64 125.81 36.66 98.43 36.05 33.66 34.84 31.43"/>
    <ellipse class="cls-4" cx="71.09" cy="12.11" rx="3.72" ry="3.69"/>
    <ellipse class="cls-5" cx="71.1" cy="12.02" rx="2.22" ry="2.2"/>
  </g>
  <g>
    <path class="cls-1" d="M70.57,49.45c-.31.47-.7,1.26-.64,2.21.08,1.46,1.17,2.49,2.13,3.31,2.7,2.31,4.9,3.38,6.27,4.27,3.53,2.29,5.93,6.24,6.35,9.78.43,3.62-1.26,6.44-3.3,9.86-1.74,2.91-3.96,5.45-7.17,9.12-2.28,2.61-3.6,3.9-4.28,6.32-.33,1.18-1.12,4.02.73,6.03,1.11,1.21,3.56,2.53,5.28,1.54,1.43-.82,2.05-2.82,1.16-4.19-1.01-1.56-3.83-2.11-5.94-.66.14-.38.83-2.08,2.64-2.72,2.37-.84,5.07.71,6.18,2.43,1.62,2.49.27,5.9-2.14,7.58-2.6,1.8-6.15,1.39-8.36.37-4.47-2.07-5.94-7.84-5.33-11.91.53-3.58,2.49-4.71,3.88-10.66.45-1.95.65-3.57.74-4.6.7.03,1.65.14,2.72.48,1.33.42,2.3,1.03,2.9,1.47-.14-.34-.81-1.82-2.65-2.65-1.94-.88-3.76-.4-4.12-.29-.03-.71-.21-2.51-1.65-4.27-1.77-2.16-10.51-4.12-11.22-4.27,1.51.19,9.81,1.92,12.04,2.8,2.05.81,3.65,1.76,4.78,2.56-.47-.7-1.57-2.15-3.63-3.23-2.03-1.06-3.95-1.23-4.87-1.25-.1-1.02-.4-2.54-1.4-4.12-2.31-3.65-11.33-6.08-12.34-6.32,1.61.22,8.39,1.93,10.52,2.64,2.77.93,4.94,2.09,6.51,3.09-.06-.78-.31-2.34-1.48-3.9-.72-.96-1.54-1.59-2.14-1.99.13-.11,1.72-1.6,1.24-3.6-.36-1.49-1.62-2.26-1.9-2.43.19-.06,2.37-.73,3.05-2.79.64-1.95-.6-3.51-.74-3.68.37.08,2.78.57,5.06-.81,2.24-1.36,2.63-3.48,2.69-3.82.23.78.88,2.49,2.64,4.05,1.71,1.51,3.58,2.07,4.45,2.28-.03.65-.02,2.55,1.4,4.41,1.76,2.3,4.42,2.89,5.03,3.02-.52.51-1.04,1.03-1.57,1.54-.91-.53-2.24-1.19-3.96-1.69-1.35-.39-2.51-.56-2.72-.59-2.72-.38-3.4.13-4.54-.51-.97-.55-1.44-1.47-1.73-2.06-.43-.85-.55-1.63-.58-2.13Z"/>
    <ellipse class="cls-5" cx="76.79" cy="49.53" rx=".89" ry=".79"/>
  </g>
</svg>