<?xml version="1.0" encoding="UTF-8"?>
<svg id="Layer_2" data-name="Layer 2" xmlns="http://www.w3.org/2000/svg" width="77.34877" height="123.68995" xmlns:xlink="http://www.w3.org/1999/xlink" viewBox="0 0 77.34877 123.68995">
  <defs>
    <style>
      .cls-1 {
        fill: url(#linear-gradient-4);
      }

      .cls-2 {
        fill: url(#linear-gradient-3);
      }

      .cls-3 {
        fill: url(#linear-gradient-2);
      }

      .cls-4 {
        fill: url(#linear-gradient);
      }

      .cls-5 {
        fill: #848484;
      }

      .cls-6 {
        fill: #fff;
      }
    </style>
    <linearGradient id="linear-gradient" x1="39.34973" y1="-29.95536" x2="38.33266" y2="47.58614" gradientUnits="userSpaceOnUse">
      <stop offset=".48594" stop-color="#808184"/>
      <stop offset=".70643" stop-color="#f1f1f2"/>
    </linearGradient>
    <linearGradient id="linear-gradient-2" x1="41.86066" y1="73.26769" x2="-20.99842" y2="73.26769" gradientUnits="userSpaceOnUse">
      <stop offset=".15051" stop-color="#929497"/>
      <stop offset=".81613" stop-color="#e6e7e8"/>
    </linearGradient>
    <linearGradient id="linear-gradient-3" x1="45.21266" y1="72.51011" x2="45.27503" y2="72.51011" gradientUnits="userSpaceOnUse">
      <stop offset="0" stop-color="#7c62ff"/>
      <stop offset="1" stop-color="#c9bdff"/>
    </linearGradient>
    <linearGradient id="linear-gradient-4" x1="39.94484" y1="46.99111" x2="39.94484" y2="80.63771" xlink:href="#linear-gradient-3"/>
  </defs>
  <g id="Layer_1-2" data-name="Layer 1">
    <g>
      <path class="cls-4" d="M38.29928,2.59169L1.8658,19.66506.01004,18.75733l-.01004,5.03073,2.00373-.83806v65.39977c0,1.81333.7633,3.54291,2.10293,4.76504l33.39468,30.46569,1.50407.10946,33.43002-30.28885c1.47785-1.33898,2.32164-3.23972,2.3235-5.23394l.06111-65.55531,2.52873.93149-.07985-4.93451-2.34234.85597M73.84726,19.93577l-70.83778.00264L38.29025,3.39112"/>
      <polygon class="cls-3" points="2.03955 23.01319 2.0766 90.99829 37.43744 123.5222 33.84003 117.39525 3.86471 90.01765 3.25455 25.23936 2.03955 23.01319"/>
      <ellipse class="cls-5" cx="38.29006" cy="3.69292" rx="3.72428" ry="3.69292"/>
      <ellipse class="cls-6" cx="38.29842" cy="3.60219" rx="2.2229" ry="2.20418"/>
    </g>
    <g>
      <path class="cls-2" d="M45.21266,72.44836v.12351c.08317-.04118.08317-.08233,0-.12351Z"/>
      <path class="cls-1" d="M65.45655,53.63271c-.04563-.09687-.22593-.68392.55475-.47813l.95543,1.34817c.04284-.94989-3.06974-7.32517-3.06974-7.32517,1.43248-2.55578-.21489-2.4867-.21489-2.4867-.8595-2.48673-2.57847-1.58874-2.57847-1.58874-1.07439-2.27949-2.93662-.34537-2.93662-.34537-2.14872-1.58874-3.43798.82891-3.43798.82891-3.07986-1.51966-3.93936,2.21041-3.93936,2.21041-3.36637-1.1052-3.65286,2.90116-3.65286,2.90116-1.43251-.96704-2.5785-.06905-2.5785-.06905-8.80984-4.35176-6.73272,5.66418-6.73272,5.66418-3.63748-3.76058-.14036-6.04915-.14036-6.04915-2.79336-2.97026-6.30587-.8584-6.30587-.8584-7.16247-2.90118-6.3746,5.18065-6.3746,5.18065-2.21757-2.47705-.28797-4.80406-.28797-4.80406-5.5151-1.45058-6.94613,2.8009-6.94613,2.8009-6.195,1.5389-3.26367,7.11739-3.26367,7.11739-3.89342,4.86976.61356,8.70089.61356,8.70089-.19056,3.92054,2.94242,5.6137,3.65395,5.94671.09078.0425.14214.06284.14214.06284l2.27454,7.76452,1.07066.03333-.35929-7.92265,1.83297-.94277,3.84518,8.79879,1.00159.0333-.51127-9.07575s-2.44243-2.04827.02656-.10241c2.46897,1.94583,5.25653.17921,5.25653.17921,1.72564,1.40819,5.22557.74037,5.22557.74037l-.94847,8.22529,1.48513.0333,4.99092-9.76424,1.09711.6511,2.7005,9.15607,1.74554-.0096-.45428-9.00417c3.16899-.74341,3.29748-3.7996,3.29748-3.7996,5.09608-.0826,4.23959-4.79081,4.23959-4.79081,2.91204-.86729,2.35534-3.717,2.35534-3.717,1.7986-2.35411.25695-4.4191.25695-4.4191,0,0-.12849-1.23901,3.34029.74341,3.46875,1.98239,4.19678.12389,4.19678.12389.22738-1.22987-1.15014-1.10604-1.42599-1.69188ZM17.65445,57.87011s-1.18922,3.44778,2.61337,5.05149c0,0-6.12473-.41435-2.61337-5.05149ZM20.96368,50.02912s-2.11709,2.78238.43585,5.6248c0,0-4.83609-2.56218-.43585-5.6248ZM24.46721,62.91125s-1.08593,4.19368,3.21361,6.40971c0,0-6.78308-.88584-3.21361-6.40971ZM29.61092,55.12423s-4.70178-6.07993,2.77034-5.51188c0,0-4.37014.93121-2.77034,5.51188ZM32.58492,57.72227s-2.53232,3.67432,1.80872,6.24273c0,0-7.63704-1.67814-1.80872-6.24273ZM37.10047,65.32258s.30154,3.92699,4.78305,2.99833c0,0-6.28301,3.49267-4.78305-2.99833ZM41.6506,57.83927s-4.53319-4.85288,1.91745-6.18976c0,0-3.66803,2.03905-1.91745,6.18976ZM43.9345,62.73306s-.00429,2.98548,3.39305,3.27911c0,0-4.89089,1.21692-3.39305-3.27911ZM47.0621,52.91052s-1.64118,2.64121,1.30032,4.52363c0,0-5.13387-1.25834-1.30032-4.52363ZM51.30249,49.60267s-1.43917,4.69644,4.04831,6.01834c0,0-8.6864.67683-4.04831-6.01834ZM51.27526,58.95141s1.56287,2.41786,4.61956,1.45937c0,0-3.54015,2.70695-4.61956-1.45937ZM54.0128,50.86475s.31927-4.70141,2.89805-4.21825c.03768.00707.07584.01513.11452.02425,2.6865.63333-1.80981,3.8346-3.01257,4.19401ZM61.12265,50.7819c-.46161,0-.83581-.36088-.83581-.80606,0-.44515.3742-.80604.83581-.80604s.83581.36088.83581.80604c0,.44518-.3742.80606-.83581.80606Z"/>
    </g>
  </g>
</svg>