<?xml version="1.0" encoding="UTF-8"?>
<svg id="Layer_1" data-name="Layer 1" xmlns="http://www.w3.org/2000/svg" xmlns:xlink="http://www.w3.org/1999/xlink" viewBox="0 0 142.84 142.96">
  <defs>
    <style>
      .cls-1 {
        fill: url(#linear-gradient-3);
      }

      .cls-2 {
        fill: url(#linear-gradient-2);
      }

      .cls-3 {
        fill: #7d64ff;
      }

      .cls-4 {
        fill: url(#linear-gradient);
      }

      .cls-5 {
        fill: #848484;
      }

      .cls-6 {
        fill: #fff;
      }
    </style>
    <linearGradient id="linear-gradient" x1="72.15" y1="-22.52" x2="71.13" y2="55.02" gradientUnits="userSpaceOnUse">
      <stop offset=".49" stop-color="#808184"/>
      <stop offset=".71" stop-color="#f1f1f2"/>
    </linearGradient>
    <linearGradient id="linear-gradient-2" x1="74.66" y1="80.7" x2="11.8" y2="80.7" gradientUnits="userSpaceOnUse">
      <stop offset=".15" stop-color="#929497"/>
      <stop offset=".82" stop-color="#e6e7e8"/>
    </linearGradient>
    <linearGradient id="linear-gradient-3" x1="51.05" y1="71.65" x2="106.39" y2="71.65" gradientUnits="userSpaceOnUse">
      <stop offset="0" stop-color="#7c62ff"/>
      <stop offset="1" stop-color="#c9bdff"/>
    </linearGradient>
  </defs>
  <g>
    <path class="cls-4" d="M71.1,10.02l-36.43,17.07-1.86-.91v5.03s1.99-.84,1.99-.84v65.4c0,1.81.76,3.54,2.1,4.77l33.39,30.47,1.5.11,33.43-30.29c1.48-1.34,2.32-3.24,2.32-5.23l.06-65.56,2.53.93-.08-4.93-2.34.86M106.65,27.37H35.81s35.28-16.54,35.28-16.54"/>
    <polygon class="cls-2" points="34.84 30.45 34.88 98.43 70.24 130.96 66.64 124.83 36.66 97.45 36.05 32.67 34.84 30.45"/>
    <ellipse class="cls-5" cx="71.09" cy="11.13" rx="3.72" ry="3.69"/>
    <ellipse class="cls-6" cx="71.1" cy="11.04" rx="2.22" ry="2.2"/>
  </g>
  <g>
    <path class="cls-1" d="M57.99,63.7c-.93-.5-1.99-.84-1.99-.84-.64-.2-1.19-.32-1.61-.4.07-.2.18-.47.38-.76.2-.28.41-.49.57-.62-.67.17-1.62.46-2.67,1,0,0-6.67,2.4-8.88,7.07-2.29,4.84.32,12.59,5.36,16.72-.41-.34-.22-1.19-.2-1.98.01-.47.06-.89.13-1.25.37,1.33,1.05,2.01,1.45,2.37,1.5,1.36,3.82.92,6.6-.56-1.02.33-2.26.05-3.93-.59-4.37-1.68-6.74-7.6-4.89-12.21,1.77-4.41,6.58-5.62,7.11-5.74-.96.36-2.93,1.25-4.14,3.24-2.28,3.77-1.52,9.8,2.08,12.5,2.58,1.94,6.48,1.47,7.67,1.39-.49,1.4-1.18,4.06.03,6.07.5.83,1.56,1.96,1.96,2.38.71.75,1.35,1.34,1.82,1.74-.43-.53-1.06-1.47-1.39-2.79-.2-.81-.23-1.52-.21-2.05.72,1.08,1.81,2.49,3.42,3.84,1.99,1.67,3.95,2.6,5.31,3.1-.43-.25-1.23-.79-1.8-1.79-.29-.51-.44-1-.52-1.37.79.75,2.18,1.87,4.21,2.63,1.59.6,3.02.76,4,.79-.23-.04-1.35-.28-2-1.32-.31-.49-.39-.97-.42-1.26,1.16.37,2.56.72,4.16.89,3.45.39,6.34-.15,8.26-.68-.43,0-1.38-.06-2.31-.68-.47-.31-.79-.67-1-.95,1.77-.76,8.07-3.72,11.57-10.96.46-.94,4.65-10,0-19.59-3.24-6.67-8.85-9.65-10.68-10.53.64,0,1.44.06,2.34.28,1.21.29,2.16.76,2.81,1.14-.75-.84-2.09-2.11-4.1-3-1.37-.61-5.02-2.22-7.96-.33-2.08,1.33-2.68,3.7-2.86,4.57.16-.17.46-.44.91-.57,0,0,.41-.12.86-.05,1.13.19,2.21,4.67,2.72,9.96.53,5.46-1.57,12.06-1.91,12.92-.21.53-.08-3.26,0-8.77.04-2.52-1.3-4.7-1.9-5.44.18,0,.72,0,1.24.38.36.27.54.59.62.76-.44-1.09-1.16-2.55-2.34-4.05-1.36-1.73-2.8-2.87-3.86-3.57.35-.02.89,0,1.52.19.59.19,1.02.46,1.29.67-2.12-2.85-4.44-4.45-5.91-5.29-1.78-1.02-3.8-2.14-6.38-1.86-.87.09-3.27.36-4.19,2.19-.52,1.04-.35,2.12-.21,2.67.31-.44.62-.57.83-.62,2.3-.51,5.85,6.75,7.36,9.84.47.97.71,1.45.91,1.99.4,1.11,1.82,5.46-.1,10.21-.68,1.69-1.75,4.33-4.55,5.72-.25.12-3.23,2.14-6.32.81-1.5-.64-3.76-2.25-3.24-3.79.32-.95,1-1.07,1.62-1.2,1.41-.3,2.01.83,3.43.69,1.1-.11,2.3-.94,2.5-1.96.3-1.55-1.75-3.4-3.43-3.35-1.52.05-2.1,1.64-3.04,1.35-.93-.29-1.53-2.25-.89-3.57.89-1.85,3.82-1.77,4.24-1.75,3.04.13,4.64,2.44,5.08,2.03.59-.55-2.33-4.81-4.54-6Z"/>
    <circle class="cls-3" cx="54.88" cy="78.17" r="1.11"/>
    <circle class="cls-3" cx="54.88" cy="70.26" r="1.11"/>
  </g>
</svg>